<?xml version="1.0" encoding="utf-8"?>
<!-- Generator: Adobe Illustrator 21.0.0, SVG Export Plug-In . SVG Version: 6.00 Build 0)  -->
<svg version="1.1" xmlns="http://www.w3.org/2000/svg" xmlns:xlink="http://www.w3.org/1999/xlink" x="0px" y="0px"
	 viewBox="0 0 152 134.8" style="enable-background:new 0 0 152 134.8;" xml:space="preserve">
<style type="text/css">
	.st0{fill:#2C5871;}
	.st1{fill:#99B1BD;}
	.st2{fill:#FFC02B;}
	.st3{fill:#A6DAE9;}
	.st4{fill:#D1D3D4;}
	.st5{fill:#E6E7E8;}
	.st6{fill:#FFFFFF;}
	.st7{fill:url(#icon_2_);}
	.st8{fill:url(#SVGID_1_);}
	.st9{fill:url(#SVGID_2_);}
	.st10{fill:url(#SVGID_3_);}
	.st11{fill:url(#SVGID_4_);}
	.st12{fill:url(#SVGID_5_);}
</style>
<g id="background">
</g>
<g id="circles">
	<circle class="st0" cx="77.6" cy="63" r="57.1"/>
</g>
<g id="shadows">
	<path class="st4" d="M128.3,87.3C128.2,87.3,128.2,87.3,128.3,87.3c-0.1-0.1-0.2-0.2-0.2-0.2c-0.1-0.1-0.3-0.3-0.4-0.4
		c0,0-0.1-0.1-0.1-0.1c0,0-0.1-0.1-0.2-0.1c-0.1-0.1-0.3-0.3-0.4-0.4c0,0,0,0,0,0c-0.2-0.2-0.4-0.4-0.6-0.6c0,0-0.1-0.1-0.1-0.1
		c0,0-0.1-0.1-0.2-0.1c-0.1-0.1-0.3-0.3-0.4-0.4c0,0-0.1-0.1-0.1-0.1c0,0-0.1-0.1-0.2-0.1c-0.1-0.1-0.3-0.3-0.4-0.4c0,0,0,0,0,0
		c-0.2-0.2-0.4-0.4-0.6-0.6c0,0,0,0,0,0c-0.2-0.2-0.4-0.4-0.6-0.6c0,0,0,0-0.1-0.1c-0.2-0.2-0.4-0.4-0.6-0.6c0,0,0,0,0,0
		c-0.2-0.2-0.4-0.4-0.6-0.6c0,0,0,0,0,0c-0.2-0.2-0.4-0.4-0.6-0.6c0,0,0,0,0,0c-0.2-0.2-0.4-0.4-0.6-0.6c0,0,0,0,0,0
		c-0.2-0.2-0.4-0.4-0.6-0.6c0,0-0.1-0.1-0.1-0.1c0,0-0.1-0.1-0.2-0.1c-0.1-0.1-0.3-0.3-0.4-0.4c0,0,0,0,0,0
		c-0.2-0.2-0.4-0.4-0.6-0.6c0,0,0,0,0,0c-0.2-0.2-0.4-0.4-0.6-0.6c0,0-0.1-0.1-0.1-0.1c0,0-0.1-0.1-0.2-0.1
		c-0.1-0.1-0.3-0.3-0.4-0.4c0,0,0,0,0,0c-0.2-0.2-0.4-0.4-0.6-0.6c0,0-0.1-0.1-0.1-0.1c0,0-0.1-0.1-0.2-0.1
		c-0.1-0.1-0.3-0.3-0.4-0.4c0,0-0.1-0.1-0.1-0.1c0,0-0.1-0.1-0.2-0.1c-0.1-0.1-0.3-0.3-0.4-0.4c0,0,0,0,0,0
		c-0.2-0.2-0.4-0.4-0.6-0.6c0,0,0,0,0,0c-0.2-0.2-0.4-0.4-0.6-0.6c0,0,0,0,0,0c-0.2-0.2-0.4-0.4-0.6-0.6c0,0,0,0,0,0
		c-0.2-0.2-0.4-0.4-0.6-0.6c0,0,0,0,0,0c-0.2-0.2-0.4-0.4-0.6-0.6c0,0,0,0,0,0c-0.2-0.2-0.4-0.4-0.6-0.6c0,0,0,0,0,0
		c-0.2-0.2-0.4-0.4-0.6-0.6c0,0,0,0,0,0c-0.2-0.2-0.4-0.4-0.6-0.6c0,0,0,0,0,0c-0.2-0.2-0.4-0.4-0.6-0.6c0,0-0.1-0.1-0.1-0.1
		c0,0-0.1-0.1-0.2-0.1c-0.1-0.1-0.3-0.3-0.4-0.4c0,0,0,0,0,0c-0.2-0.2-0.4-0.4-0.6-0.6c0,0,0,0,0,0c-0.2-0.2-0.4-0.4-0.6-0.6
		c0,0-0.1-0.1-0.1-0.1c0,0-0.1-0.1-0.2-0.1c-0.1-0.1-0.2-0.3-0.4-0.4c0,0-0.1-0.1-0.1-0.1c0,0-0.1-0.1-0.2-0.1
		c-0.1-0.1-0.3-0.3-0.4-0.4c0,0,0,0,0,0c-0.2-0.2-0.4-0.4-0.6-0.6c0,0,0,0,0,0c-0.2-0.2-0.4-0.4-0.6-0.6c0,0,0,0,0,0
		c-0.2-0.2-0.4-0.4-0.6-0.6c0,0-0.1-0.1-0.1-0.1c0,0-0.1-0.1-0.2-0.1c-0.1-0.1-0.3-0.3-0.4-0.4c0,0,0,0,0,0
		c-0.2-0.2-0.4-0.4-0.6-0.6c0,0,0,0,0,0c-0.2-0.2-0.4-0.4-0.6-0.6c0,0,0,0,0,0c-0.2-0.2-0.4-0.4-0.6-0.6c0,0,0,0,0,0
		c-0.2-0.2-0.4-0.4-0.6-0.6c0,0-0.1-0.1-0.1-0.1c0,0-0.1-0.1-0.2-0.1c-0.1-0.1-0.3-0.3-0.4-0.4c0,0-0.1-0.1-0.1-0.1
		c0,0-0.1-0.1-0.1-0.1c-0.1-0.1-0.3-0.3-0.4-0.4c0,0,0,0,0,0c-0.2-0.2-0.4-0.4-0.6-0.6c0,0-0.1-0.1-0.1-0.1c0,0-0.1-0.1-0.2-0.1
		c-0.1-0.1-0.3-0.3-0.4-0.4c0,0-0.1-0.1-0.1-0.1c0,0-0.1-0.1-0.1-0.1c-0.1-0.1-0.3-0.3-0.4-0.4c0,0-0.1-0.1-0.1-0.1
		c0,0-0.1-0.1-0.2-0.1c-0.1-0.1-0.3-0.3-0.4-0.4c0,0-0.1-0.1-0.1-0.1c0,0-0.1-0.1-0.2-0.1c-0.1-0.1-0.3-0.3-0.4-0.4c0,0,0,0,0,0
		c-0.2-0.2-0.4-0.4-0.6-0.6c0,0,0,0,0,0c-0.2-0.2-0.4-0.4-0.6-0.6c0,0,0,0,0,0c-0.2-0.2-0.4-0.4-0.6-0.6c0,0,0,0,0,0
		c-0.2-0.2-0.4-0.4-0.6-0.6c0,0,0,0,0,0c-0.2-0.2-0.4-0.4-0.6-0.6c0,0-0.1-0.1-0.1-0.1c0,0-0.1-0.1-0.2-0.1
		c-0.1-0.1-0.3-0.3-0.4-0.4c0,0,0,0,0,0c-0.2-0.2-0.4-0.4-0.6-0.6c0,0,0,0,0,0c-0.2-0.2-0.4-0.4-0.6-0.6c0,0,0,0,0,0
		c-0.2-0.2-0.4-0.4-0.6-0.6c0,0,0,0,0,0c-0.2-0.2-0.4-0.4-0.6-0.6c0,0-0.1-0.1-0.1-0.1c0,0-0.1-0.1-0.1-0.1
		c-0.1-0.1-0.3-0.3-0.4-0.4c0,0,0,0,0,0c-0.2-0.2-0.4-0.4-0.6-0.6c0,0-0.1-0.1-0.1-0.1c0,0-0.1-0.1-0.2-0.1
		c-0.1-0.1-0.3-0.3-0.4-0.4c0,0-0.1-0.1-0.1-0.1c0,0-0.1-0.1-0.1-0.1c-0.1-0.1-0.3-0.3-0.4-0.4c0,0-0.1-0.1-0.1-0.1
		c0,0-0.1-0.1-0.2-0.1c-0.1-0.1-0.3-0.3-0.4-0.4c0,0,0,0,0,0c-0.2-0.2-0.4-0.4-0.6-0.6c0,0,0,0,0,0c-0.2-0.2-0.4-0.4-0.6-0.6
		c0,0,0,0,0,0c-0.2-0.2-0.4-0.4-0.6-0.6c0,0,0,0,0,0c-0.2-0.2-0.4-0.4-0.6-0.6c0,0,0,0,0,0c-0.2-0.2-0.4-0.4-0.6-0.6
		c0,0-0.1-0.1-0.1-0.1c0,0-0.1-0.1-0.2-0.1c-0.1-0.1-0.3-0.3-0.4-0.4c0,0-0.1-0.1-0.1-0.1c0,0-0.1-0.1-0.2-0.1
		c-0.1-0.1-0.3-0.3-0.4-0.4c0,0-0.1-0.1-0.1-0.1c0,0-0.1-0.1-0.2-0.1c-0.1-0.1-0.3-0.3-0.4-0.4c0,0-0.1-0.1-0.1-0.1
		c0,0-0.1-0.1-0.2-0.1c-0.1-0.1-0.3-0.3-0.4-0.4c0,0,0,0,0,0c-0.2-0.2-0.4-0.4-0.6-0.6c0,0,0,0,0,0c-0.2-0.2-0.4-0.4-0.6-0.6
		c0,0-0.1-0.1-0.1-0.1c0,0-0.1-0.1-0.2-0.1c-0.1-0.1-0.3-0.3-0.4-0.4c0,0-0.1-0.1-0.1-0.1c0,0-0.1-0.1-0.2-0.1
		c-0.1-0.1-0.3-0.3-0.4-0.4c0,0,0,0,0,0c-0.2-0.2-0.4-0.4-0.6-0.6c0,0-0.1-0.1-0.1-0.1c0,0-0.1-0.1-0.2-0.1
		c-0.1-0.1-0.3-0.3-0.4-0.4c0,0-0.1-0.1-0.1-0.1c0,0-0.1-0.1-0.2-0.1c-0.1-0.1-0.3-0.3-0.4-0.4c0,0,0,0,0,0
		c-0.2-0.2-0.4-0.4-0.6-0.6c0,0,0,0,0,0c-0.2-0.2-0.4-0.4-0.6-0.6c0,0-0.1-0.1-0.1-0.1c-0.2-0.1-0.3-0.3-0.5-0.4c0,0,0,0-0.1,0
		c-0.5-0.4-1-0.7-1.6-1h0c-0.2-0.1-0.5-0.2-0.7-0.3c0,0,0,0,0,0c0,0,0,0,0,0c0,0-0.1,0-0.1-0.1c0,0,0,0,0,0
		c-0.3-0.1-0.6-0.2-0.9-0.2c0,0-0.1,0-0.1,0c-0.3-0.1-0.5-0.1-0.8-0.1c-0.1,0-0.1,0-0.2,0c-0.3,0-0.6-0.1-1-0.1c-5,0-9,4-9,8.9
		c0,0.3,0,0.6,0,0.8c0,0.1,0,0.2,0,0.3c0,0.2,0.1,0.4,0.1,0.6c0,0.1,0,0.2,0.1,0.3c0,0.2,0.1,0.4,0.1,0.5c0,0.1,0,0.2,0.1,0.3
		c0.1,0.2,0.2,0.5,0.3,0.7c0,0.1,0.1,0.2,0.1,0.2c0.1,0.2,0.1,0.3,0.2,0.5c0.1,0.1,0.1,0.2,0.2,0.3c0.1,0.1,0.1,0.2,0.2,0.3
		c0.1,0.1,0.2,0.2,0.2,0.3c0.1,0.1,0.1,0.2,0.2,0.2c0.3,0.4,0.7,0.8,1.1,1.2c0.2,0.2,0.4,0.4,0.7,0.7c0.2,0.2,0.4,0.4,0.6,0.6
		c0.2,0.2,0.4,0.4,0.6,0.6c0.2,0.2,0.4,0.4,0.6,0.6c0.2,0.2,0.4,0.4,0.6,0.6c0.2,0.2,0.4,0.4,0.6,0.6h-2.2l0,0c-2.3,0-4,0-4,0
		c-9.3,0-9.7,10-9.7,10l0,24.1c0,0,0,0.8,0.3,1.7c0,0,0,0.1,0,0.1c0,0,0,0,0,0.1c0.2,0.5,0.5,0.9,1,1.3c0.2,0.2,0.4,0.5,0.6,0.6
		c0.2,0.2,0.4,0.5,0.6,0.6c0.2,0.2,0.4,0.5,0.6,0.6c0.2,0.2,0.4,0.5,0.6,0.6c0.2,0.2,0.4,0.5,0.6,0.6c0.2,0.2,0.4,0.5,0.6,0.6
		c0.2,0.2,0.4,0.5,0.6,0.6c0.2,0.2,0.4,0.5,0.6,0.6c0.2,0.2,0.4,0.5,0.6,0.6c0.2,0.2,0.4,0.5,0.6,0.6c0.2,0.2,0.4,0.5,0.6,0.6
		c0.2,0.2,0.4,0.5,0.6,0.6c0.2,0.2,0.4,0.5,0.6,0.6c0.2,0.2,0.4,0.5,0.6,0.6c0.2,0.2,0.4,0.5,0.6,0.6c0.2,0.2,0.4,0.5,0.6,0.6
		c0.2,0.2,0.4,0.5,0.6,0.6c0.2,0.2,0.4,0.5,0.6,0.6c0.2,0.2,0.4,0.5,0.6,0.6c0.2,0.2,0.4,0.5,0.6,0.6c0.2,0.2,0.4,0.5,0.6,0.6
		c0.2,0.2,0.4,0.5,0.6,0.6c0.2,0.2,0.4,0.5,0.6,0.6c0.2,0.2,0.4,0.5,0.6,0.6c0.2,0.2,0.4,0.5,0.6,0.6c0.2,0.2,0.4,0.5,0.6,0.6
		c0.2,0.2,0.4,0.5,0.6,0.6c0.2,0.2,0.4,0.5,0.6,0.6c0.2,0.2,0.4,0.5,0.6,0.6c0.2,0.2,0.4,0.5,0.6,0.6c0.2,0.2,0.4,0.5,0.6,0.6
		c0.2,0.2,0.4,0.5,0.6,0.6c0.2,0.2,0.4,0.5,0.6,0.6c0.2,0.2,0.4,0.5,0.6,0.6c0.2,0.2,0.4,0.5,0.6,0.6c0.2,0.2,0.4,0.5,0.6,0.6
		c0.2,0.2,0.4,0.5,0.6,0.6c0.2,0.2,0.4,0.5,0.6,0.6c0.2,0.2,0.4,0.5,0.6,0.6c0.2,0.2,0.4,0.5,0.6,0.6c0.2,0.2,0.4,0.5,0.6,0.6
		c0.2,0.2,0.4,0.5,0.6,0.6c0.2,0.2,0.4,0.5,0.6,0.6c0.2,0.2,0.4,0.5,0.6,0.6c0.2,0.2,0.4,0.5,0.6,0.6c0.2,0.2,0.4,0.5,0.6,0.6
		c0.2,0.2,0.4,0.5,0.6,0.6c0,0,0,0,0,0c19.9-2.1,36.8-14.5,45.2-31.8C128.7,87.8,128.5,87.5,128.3,87.3z"/>
</g>
<g id="icons">
	<g id="_x32_7_1_">
		<g>
			<path class="st6" d="M67.8,71.9c0-2.3,1.9-4.1,4.1-4.1h7.7c0-1.9,0-3.1,0-3.1h0.4h0.5c0,0,0,0.1,0,0.4c0,0.5,0,1.5,0,2.7h6.8
				c0-2.6,0-4.7,0-5.5c0-0.3,0-0.6,0-0.9c0-0.1,0-0.2,0-0.3c0-0.2,0-0.4-0.1-0.6c0-0.1,0-0.2-0.1-0.3c0-0.2-0.1-0.4-0.1-0.6
				c0-0.1,0-0.2-0.1-0.3c-0.1-0.2-0.1-0.4-0.2-0.6c0-0.1,0-0.1-0.1-0.2c-0.1-0.3-0.2-0.5-0.3-0.8c0-0.1-0.1-0.2-0.1-0.2
				c-0.1-0.2-0.2-0.4-0.3-0.5c-0.1-0.1-0.1-0.2-0.2-0.3c-0.1-0.2-0.2-0.3-0.3-0.4c-0.1-0.1-0.1-0.2-0.2-0.3
				c-0.1-0.2-0.2-0.3-0.4-0.4c-0.1-0.1-0.1-0.1-0.2-0.2c-0.2-0.2-0.4-0.4-0.6-0.6c-0.1,0-0.1-0.1-0.2-0.1c-0.2-0.1-0.3-0.3-0.5-0.4
				c-0.1-0.1-0.2-0.1-0.3-0.2c-0.1-0.1-0.3-0.2-0.4-0.3c-0.1-0.1-0.2-0.1-0.3-0.2c-0.2-0.1-0.3-0.2-0.5-0.2c-0.1,0-0.2-0.1-0.3-0.1
				c-0.2-0.1-0.5-0.2-0.7-0.3c0,0-0.1,0-0.1,0h0c0,0,0,0,0,0c-0.9-0.3-1.9-0.4-2.9-0.4c-0.8,0-2.6,0-4.7,0l-0.4,0.3L70.3,55l2,5.4
				l-0.1,0.2l0.1,0.2l-2.8,6.1l-2.5-6l0.1-0.2L67,60.5l1.8-5.5l-2.6-2.4l-0.4-0.3c-2.3,0-4,0-4,0c-9.3,0-9.7,10-9.7,10l0,24.1
				c0,0,0,0.8,0.3,1.7c0,0,0,0.1,0,0.1c0,0,0,0,0,0.1c0.3,0.7,0.8,1.3,1.7,1.6c0,0,0,0-0.1-0.1c0.3,0.1,0.7,0.2,1.2,0.2
				c3.3,0,3.3-3.7,3.3-3.7V64.7h0.8c0,0,0,0.3,0,0.7c0,3.1,0,15.5,0,27.5h9.2c0-0.2,0-0.4,0-0.5c-0.5-0.7-0.8-1.5-0.8-2.4V71.9z"/>
			<path class="st6" d="M61.3,43c0,0.2,0.1,0.4,0.1,0.6c0,0.1,0,0.2,0.1,0.3c0,0.2,0.1,0.4,0.1,0.5c0,0.1,0,0.2,0.1,0.3
				c0.1,0.2,0.2,0.5,0.3,0.7c0,0.1,0.1,0.2,0.1,0.2c0.1,0.2,0.1,0.3,0.2,0.5c0.1,0.1,0.1,0.2,0.2,0.3c0.1,0.1,0.1,0.2,0.2,0.3
				c0.1,0.1,0.2,0.2,0.2,0.3c0.1,0.1,0.1,0.2,0.2,0.2c0.4,0.5,0.7,0.9,1.2,1.3c0,0,0.1,0.1,0.1,0.1c0.1,0.1,0.3,0.2,0.5,0.4
				c0,0,0.1,0.1,0.1,0.1c0.7,0.5,1.5,0.9,2.4,1.2c0,0,0,0,0,0h0c0.4,0.1,0.7,0.2,1.1,0.3c0,0,0,0,0,0c0.3,0.1,0.5,0.1,0.8,0.1
				c0,0,0.1,0,0.1,0c0.3,0,0.6,0.1,0.9,0.1c5,0,9-4,9-8.9c0-0.3,0-0.6,0-0.8c0-0.1,0-0.2,0-0.3c0-0.2-0.1-0.4-0.1-0.6
				c0-0.1,0-0.2-0.1-0.3c0-0.2-0.1-0.4-0.1-0.5c0-0.1,0-0.2-0.1-0.2c-0.1-0.2-0.2-0.5-0.3-0.7c0-0.1-0.1-0.2-0.1-0.3
				c-0.1-0.1-0.1-0.3-0.2-0.4c-0.1-0.1-0.1-0.2-0.2-0.3c-0.1-0.1-0.1-0.2-0.2-0.3c-0.1-0.1-0.2-0.2-0.2-0.4
				c-0.1-0.1-0.1-0.1-0.2-0.2c-0.3-0.5-0.7-0.9-1.2-1.3c0,0-0.1-0.1-0.1-0.1c-0.2-0.1-0.3-0.3-0.5-0.4c0,0,0,0-0.1,0
				c-0.5-0.4-1-0.7-1.6-1h0c-0.2-0.1-0.5-0.2-0.7-0.3c0,0,0,0,0,0c0,0,0,0,0,0c0,0-0.1,0-0.1-0.1c0,0,0,0,0,0
				c-0.3-0.1-0.6-0.2-0.9-0.2c0,0-0.1,0-0.1,0c-0.3-0.1-0.5-0.1-0.8-0.1c-0.1,0-0.1,0-0.2,0c-0.3,0-0.6-0.1-1-0.1c-5,0-9,4-9,8.9
				c0,0.3,0,0.6,0,0.8C61.3,42.8,61.3,42.9,61.3,43z"/>
			<polygon class="st2" points="65.8,52.3 65.8,52.3 66.2,52.7 68.8,55.1 68.9,55.1 67,60.7 67,60.9 69.5,66.9 72.3,60.8 72.2,60.6 
				70.2,55.1 70.3,55 73.1,52.7 73.5,52.3 73.5,52.3 			"/>
		</g>
		<g>
			<path class="st6" d="M103,90.1V71.9c0-1.6-1.3-2.9-2.9-2.9H72c-1.6,0-2.9,1.3-2.9,2.9v18.1c0,1.6,1.3,2.9,2.9,2.9H100
				C101.7,93,103,91.7,103,90.1L103,90.1z"/>
			<path class="st3" d="M99.2,71L87.1,83.1c-0.3,0.3-0.6,0.4-1,0.4c-0.3,0-0.7-0.1-1-0.4L73,71H99.2z M71.4,90.9
				c-0.3-0.2-0.4-0.5-0.4-0.8V71.9c0-0.3,0.2-0.7,0.5-0.8l9.8,9.8L71.4,90.9z M73,91l9.2-9.2l2.1,2.1c0.5,0.5,1.2,0.8,1.8,0.8
				c0,0,0,0,0,0c0.7,0,1.3-0.3,1.8-0.8l2.1-2.1l9.2,9.2H73z M101,90.1c0,0.3-0.1,0.5-0.3,0.7L90.9,81l9.8-9.8
				c0.2,0.2,0.3,0.4,0.3,0.7V90.1z"/>
			<path class="st0" d="M88.5,80c0.5-0.3,0.9-0.7,1.2-1.2h-0.8c-0.3,0.3-0.6,0.6-1,0.8c-0.4,0.2-1,0.2-1.6,0.2
				c-0.6,0-1.2-0.1-1.7-0.3c-0.5-0.2-0.9-0.5-1.1-1C83.2,78.1,83,77.6,83,77c0-0.5,0.1-1.1,0.4-1.6c0.2-0.5,0.6-0.9,1.1-1.2
				c0.5-0.3,1.1-0.4,1.7-0.4c0.8,0,1.4,0.2,1.9,0.6c0.4,0.4,0.7,0.9,0.7,1.6c0,0.3-0.1,0.7-0.2,1c-0.2,0.3-0.4,0.6-0.6,0.8
				c-0.2,0.1-0.3,0.2-0.5,0.2c0,0-0.1,0-0.1,0c0,0,0-0.1,0-0.1c0-0.1,0-0.2,0.1-0.3l0.6-2.7h-1l-0.1,0.4c-0.2-0.3-0.5-0.5-1-0.5
				c-0.6,0-1.1,0.3-1.6,0.9c-0.3,0.5-0.5,1-0.5,1.6c0,0.5,0.1,0.9,0.4,1.2c0.3,0.3,0.6,0.4,1,0.4c0.4,0,0.7-0.1,1-0.4
				c0,0.1,0.1,0.2,0.2,0.3c0.1,0.1,0.3,0.1,0.5,0.1c0.8,0,1.4-0.3,1.9-1c0.4-0.5,0.6-1.1,0.6-1.7c0-0.5-0.1-1-0.4-1.5
				c-0.3-0.5-0.6-0.8-1.1-1.1c-0.5-0.2-1.1-0.4-1.7-0.4c-0.7,0-1.4,0.2-2,0.5c-0.6,0.3-1,0.8-1.4,1.4c-0.3,0.6-0.5,1.3-0.5,2
				c0,0.6,0.1,1.2,0.4,1.8c0.3,0.5,0.7,1,1.4,1.2c0.6,0.3,1.3,0.4,2.2,0.4C87.2,80.5,87.9,80.3,88.5,80z M86.5,77.1
				c-0.1,0.3-0.2,0.5-0.3,0.7C86,77.9,85.9,78,85.8,78c-0.1,0.1-0.3,0.1-0.4,0.1c-0.2,0-0.4-0.1-0.5-0.2c-0.1-0.2-0.2-0.4-0.2-0.7
				c0-0.2,0-0.5,0.1-0.8c0.1-0.3,0.2-0.6,0.4-0.7c0.2-0.2,0.4-0.3,0.6-0.3c0.2,0,0.4,0.1,0.5,0.2c0.1,0.2,0.2,0.4,0.2,0.7
				C86.6,76.5,86.6,76.8,86.5,77.1z"/>
		</g>
	</g>
</g>
<g id="text">
</g>
<g id="header_1_">
</g>
</svg>
