<?xml version="1.0" encoding="utf-8"?>
<!-- Generator: Adobe Illustrator 21.0.0, SVG Export Plug-In . SVG Version: 6.00 Build 0)  -->
<svg version="1.1" xmlns="http://www.w3.org/2000/svg" xmlns:xlink="http://www.w3.org/1999/xlink" x="0px" y="0px"
	 viewBox="0 0 138 147.4" style="enable-background:new 0 0 138 147.4;" xml:space="preserve">
<style type="text/css">
	.st0{fill:#2C5871;}
	.st1{fill:#D1D3D4;}
	.st2{fill:url(#SVGID_1_);}
	.st3{fill:#FFC02B;}
</style>
<g id="background">
</g>
<g id="circles">
</g>
<g id="shadows">
</g>
<g id="icons">
	<circle class="st0" cx="67.5" cy="72.8" r="57.1"/>
	<path class="st1" d="M121.6,87.7c-0.2-0.2-0.4-0.4-0.6-0.6c-0.2-0.2-0.4-0.4-0.5-0.5c-0.2-0.2-0.4-0.4-0.6-0.6
		c-0.2-0.2-0.4-0.4-0.6-0.6c-0.2-0.2-0.4-0.4-0.6-0.6c-0.2-0.2-0.4-0.4-0.6-0.6c-0.2-0.2-0.4-0.4-0.6-0.6c-0.2-0.2-0.4-0.4-0.6-0.6
		c-0.2-0.2-0.4-0.4-0.5-0.5c-0.2-0.2-0.4-0.4-0.6-0.6c-0.2-0.2-0.4-0.4-0.6-0.6c-0.2-0.2-0.4-0.4-0.6-0.6c-0.2-0.2-0.4-0.4-0.6-0.6
		c-0.2-0.2-0.4-0.4-0.6-0.6c-0.2-0.2-0.4-0.4-0.6-0.6c-0.2-0.2-0.4-0.4-0.5-0.5c-0.2-0.2-0.4-0.4-0.6-0.6c-0.2-0.2-0.4-0.4-0.6-0.6
		c-0.2-0.2-0.4-0.4-0.6-0.6c-0.2-0.2-0.4-0.4-0.6-0.5c-0.2-0.2-0.4-0.4-0.6-0.6c-0.2-0.2-0.4-0.4-0.6-0.6c-0.2-0.2-0.4-0.4-0.6-0.6
		c-0.2-0.2-0.4-0.4-0.6-0.6c-0.2-0.2-0.4-0.4-0.6-0.6c-0.2-0.2-0.4-0.4-0.6-0.6c-0.2-0.2-0.4-0.4-0.5-0.5c-0.2-0.2-0.4-0.4-0.6-0.6
		c-0.2-0.2-0.4-0.4-0.6-0.6c-0.2-0.2-0.4-0.4-0.6-0.6c-0.2-0.2-0.4-0.4-0.6-0.6c-0.2-0.2-0.4-0.4-0.6-0.6c-0.2-0.2-0.4-0.4-0.6-0.6
		c-0.2-0.2-0.4-0.4-0.6-0.6c-0.2-0.2-0.4-0.4-0.6-0.6c-0.2-0.2-0.4-0.4-0.5-0.5c-0.2-0.2-0.4-0.4-0.6-0.6c-0.2-0.2-0.4-0.4-0.5-0.5
		c-0.2-0.2-0.4-0.4-0.6-0.6c-0.2-0.2-0.4-0.4-0.6-0.6c-0.2-0.2-0.4-0.4-0.6-0.6c-0.2-0.2-0.4-0.4-0.6-0.6c-0.2-0.2-0.4-0.4-0.6-0.6
		c-0.2-0.2-0.4-0.4-0.6-0.6c-0.2-0.2-0.4-0.4-0.5-0.5c-0.2-0.2-0.4-0.4-0.6-0.6c-0.2-0.2-0.4-0.4-0.6-0.6c-0.2-0.2-0.4-0.4-0.6-0.6
		c-0.2-0.2-0.4-0.4-0.6-0.6c-0.2-0.2-0.4-0.4-0.6-0.6c-0.2-0.2-0.4-0.4-0.6-0.6c-0.2-0.2-0.4-0.4-0.5-0.5c-0.2-0.2-0.4-0.4-0.6-0.6
		c-0.2-0.2-0.4-0.4-0.5-0.5c-0.2-0.2-0.4-0.4-0.6-0.6c-0.2-0.2-0.4-0.4-0.6-0.6c-0.2-0.2-0.4-0.4-0.6-0.6c-0.2-0.2-0.4-0.4-0.6-0.6
		c-0.2-0.2-0.4-0.4-0.6-0.6c-0.2-0.2-0.4-0.4-0.6-0.6c-0.2-0.2-0.4-0.4-0.6-0.6c-0.2-0.2-0.4-0.4-0.5-0.5c-0.2-0.2-0.4-0.4-0.6-0.6
		c-0.2-0.2-0.4-0.4-0.6-0.6c-0.2-0.2-0.4-0.4-0.6-0.6c-0.2-0.2-0.4-0.4-0.6-0.6c-1-1-2.1-2-3.2-2.7c-2.2-1.4-4.6-2.5-7.2-2.8
		c-6.4-0.7-12.8,0.4-18.3,2.8c-3.4,1.7-8.4,4.5-8,9.1c0.2,0,0.4-0.2,0.5-0.3c0,0.3,0,0.6,0,0.9c0,0,0,0,0,0c-0.1,0.7-0.1,1.4,0.1,2
		c0.2-0.1,0.2-0.4,0.4-0.6c0,0.1,0,0.2,0,0.3c-0.1,1.6,0.5,3,1.3,4.3c0.5,1.8-0.9,3.1-1.8,4.5l-3.9,5l-0.1,0.5
		c0,0.7,0.4,1.2,0.9,1.6c0.2,0.2,0.3,0.4,0.6,0.6c0.2,0.2,0.3,0.4,0.6,0.6c0.2,0.2,0.3,0.4,0.6,0.6c0.1,0.1,0.2,0.2,0.3,0.3
		c-0.2,0.8-0.6,1.4-0.9,2.1c-0.2,0.5,0.3,0.9,0.6,1.2c0.1,0.5-0.3,0.9-0.4,1.3c-0.2,0.7,0.2,1.3,0.8,1.8c0.5,0.6,0.1,1.3,0.1,2
		c-0.5,1-0.7,2.2-0.5,3.3c0.2,0.5,0.5,0.8,0.9,1.1c0.2,0.2,0.3,0.4,0.6,0.6c0.2,0.2,0.3,0.4,0.6,0.6c0.2,0.2,0.3,0.4,0.6,0.6
		c0.2,0.2,0.3,0.4,0.6,0.6c0.2,0.2,0.3,0.4,0.6,0.6c0.2,0.2,0.3,0.4,0.6,0.6c0.2,0.2,0.3,0.4,0.6,0.6c0.2,0.2,0.3,0.4,0.6,0.6
		c0.2,0.2,0.3,0.4,0.6,0.6c0.2,0.2,0.3,0.4,0.6,0.6c0.2,0.2,0.3,0.4,0.6,0.6c0.2,0.2,0.3,0.4,0.6,0.6c0.2,0.2,0.3,0.4,0.6,0.6
		c0.2,0.2,0.3,0.4,0.6,0.6c0.2,0.2,0.3,0.4,0.6,0.6c0.2,0.2,0.3,0.4,0.6,0.6c0.2,0.2,0.3,0.4,0.6,0.6c0.1,0.1,0.1,0.2,0.2,0.2
		c0,0.1,0.1,0.2,0.1,0.3c0.1,0,0.1,0,0.2,0c0,0,0,0,0,0c0.1,0.1,0.1,0.2,0.2,0.2c0,0.1,0.1,0.2,0.1,0.3c0.1,0,0.1,0,0.2,0
		c0,0,0,0,0,0c0.1,0.1,0.1,0.2,0.2,0.2c0,0.1,0.1,0.2,0.1,0.3c0.1,0,0.1,0,0.2,0c0,0,0,0,0,0c0.1,0.1,0.1,0.2,0.2,0.2
		c0,0.1,0.1,0.2,0.1,0.3c0.1,0,0.1,0,0.2,0c0,0,0,0,0,0c0.1,0.1,0.1,0.2,0.2,0.2c0,0.1,0.1,0.2,0.1,0.3c0.1,0,0.1,0,0.2,0
		c0,0,0,0,0,0c0.1,0.1,0.1,0.2,0.2,0.2c0,0.1,0.1,0.2,0.1,0.3c0.1,0,0.1,0,0.2,0c0,0,0,0,0,0c0.1,0.1,0.1,0.2,0.2,0.2
		c0,0.1,0.1,0.2,0.1,0.3c0.1,0,0.1,0,0.2,0c0,0,0,0,0,0c0.1,0.1,0.1,0.2,0.2,0.2c0,0.1,0.1,0.2,0.1,0.3c0.1,0,0.1,0,0.2,0
		c0,0,0,0,0,0c0.1,0.1,0.1,0.2,0.2,0.2c0,0.1,0.1,0.2,0.1,0.3c0.1,0,0.1,0,0.2,0c0,0,0,0,0,0c0.1,0.1,0.1,0.2,0.2,0.2
		c0,0.1,0.1,0.2,0.1,0.3c0.1,0,0.1,0,0.2,0c0,0,0,0,0,0c0.1,0.1,0.1,0.2,0.2,0.2c0,0.1,0.1,0.2,0.1,0.3c0.1,0,0.1,0,0.2,0
		c0,0,0,0,0,0c0.1,0.1,0.1,0.2,0.2,0.2c0,0.1,0.1,0.2,0.1,0.3c0.1,0,0.1,0,0.2,0c0,0,0,0,0,0c0.1,0.1,0.1,0.2,0.2,0.2
		c0,0.1,0.1,0.2,0.1,0.3c0.1,0,0.1,0,0.2,0c0,0,0,0,0,0c0.1,0.1,0.1,0.2,0.2,0.2c0,0.1,0.1,0.2,0.1,0.3c0.1,0,0.1,0,0.2,0
		c0,0,0,0,0,0c0.1,0.1,0.1,0.2,0.2,0.2c0,0.1,0.1,0.2,0.1,0.3c0.1,0,0.1,0,0.2,0c0,0,0,0,0,0c0.1,0.1,0.1,0.2,0.2,0.2
		c0,0.1,0.1,0.2,0.1,0.3c0.1,0,0.1,0,0.2,0c0,0,0,0,0,0c0.1,0.1,0.1,0.2,0.2,0.2c0,0.1,0.1,0.2,0.1,0.3c0.1,0,0.1,0,0.2,0
		c0,0,0,0,0,0c0.1,0.1,0.1,0.2,0.2,0.2c0,0.1,0.1,0.2,0.1,0.3c0.1,0,0.1,0,0.2,0c0,0,0,0,0,0c0.1,0.1,0.1,0.2,0.2,0.2
		c0,0.1,0.1,0.2,0.1,0.3c0.1,0,0.1,0,0.2,0c0,0,0,0,0,0c0.1,0.1,0.1,0.2,0.2,0.2c0,0.1,0.1,0.2,0.1,0.3c0.1,0,0.1,0,0.2,0
		c0,0,0,0,0,0c0.1,0.1,0.1,0.2,0.2,0.2c0,0.1,0.1,0.2,0.1,0.3c0.1,0,0.1,0,0.2,0c0,0,0,0,0,0c0.1,0.1,0.1,0.2,0.2,0.2
		c0,0.1,0.1,0.2,0.1,0.3c0.1,0,0.1,0,0.2,0c0,0,0,0,0,0c0.1,0.1,0.1,0.2,0.2,0.2c0,0.1,0.1,0.2,0.1,0.3c0.1,0,0.1,0,0.2,0
		c0,0,0,0,0,0c0.1,0.1,0.1,0.2,0.2,0.2c0,0.1,0.1,0.2,0.1,0.3c0.1,0,0.1,0,0.2,0c0,0,0,0,0,0c0.1,0.1,0.1,0.2,0.2,0.2
		c0,0.1,0.1,0.2,0.1,0.3c0.1,0,0.1,0,0.2,0c0,0,0,0,0,0c0.1,0.1,0.1,0.2,0.2,0.2c0,0.1,0.1,0.2,0.1,0.3c0.1,0,0.1,0,0.2,0
		c0,0,0,0,0,0c0.1,0.1,0.1,0.2,0.2,0.2c0,0.1,0.1,0.2,0.1,0.3c0.1,0,0.1,0,0.2,0c0,0,0,0,0,0c0.1,0.1,0.1,0.2,0.2,0.2
		c0,0.1,0.1,0.2,0.1,0.3c0.1,0,0.1,0,0.2,0c0,0,0,0,0,0c0.1,0.1,0.1,0.2,0.2,0.2c0,0.1,0.1,0.2,0.1,0.3c0.1,0,0.1,0,0.2,0
		c0,0,0,0,0,0c0.1,0.1,0.1,0.2,0.2,0.2c0,0.1,0.1,0.2,0.1,0.3c0.1,0,0.1,0,0.2,0c0,0,0,0,0,0c0.1,0.1,0.1,0.2,0.2,0.2
		c0,0.1,0.1,0.2,0.1,0.3c0.1,0,0.1,0,0.2,0c0,0,0,0,0,0c0.1,0.1,0.1,0.2,0.2,0.2c0,0.1,0.1,0.2,0.1,0.3c0.1,0,0.1,0,0.2,0
		c0,0,0,0,0,0c0.1,0.1,0.1,0.2,0.2,0.2c0,0.1,0.1,0.2,0.1,0.3c0.1,0,0.1,0,0.2,0c0,0,0,0,0,0c0.1,0.1,0.1,0.2,0.2,0.2
		c0,0.1,0.1,0.2,0.1,0.3c0.1,0,0.1,0,0.2,0c0,0,0,0,0,0c0.1,0.1,0.1,0.2,0.2,0.2c0,0.1,0.1,0.2,0.1,0.3c0.1,0,0.1,0,0.2,0
		c0,0,0,0,0,0c0.1,0.1,0.1,0.2,0.2,0.2c0,0.1,0.1,0.2,0.1,0.3c0.1,0,0.1,0,0.2,0c0,0,0,0,0,0c0.1,0.1,0.1,0.2,0.2,0.2
		c0,0.1,0.1,0.2,0.1,0.3c0.1,0,0.1,0,0.2,0c0,0,0,0,0,0c0.1,0.1,0.1,0.2,0.2,0.2c0,0.1,0.1,0.2,0.1,0.3c0.1,0,0.1,0,0.2,0
		c0,0,0,0,0,0c0.1,0.1,0.1,0.2,0.2,0.2c0,0.1,0.1,0.2,0.1,0.3c0.1,0,0.1,0,0.2,0c0,0,0,0,0,0c0.1,0.1,0.1,0.2,0.2,0.2
		c0,0.1,0.1,0.2,0.1,0.3c0.1,0,0.1,0,0.2,0c0,0,0,0,0,0c0.1,0.1,0.1,0.2,0.2,0.2c0,0.1,0.1,0.2,0.1,0.3c0.1,0,0.1,0,0.2,0
		c0,0,0,0,0,0c0.1,0.1,0.1,0.2,0.2,0.2c0,0.1,0.1,0.2,0.1,0.3c0.1,0,0.1,0,0.2,0c0,0,0,0,0,0c0.1,0.1,0.1,0.2,0.2,0.2
		c0,0.1,0.1,0.2,0.1,0.3c0.1,0,0.1,0,0.2,0c0,0,0,0,0,0c0.1,0.1,0.1,0.2,0.2,0.2c0,0.1,0.1,0.2,0.1,0.3c0.1,0,0.1,0,0.2,0
		c0,0,0,0,0,0c0.1,0.1,0.1,0.2,0.2,0.2c0,0.1,0.1,0.2,0.1,0.3c0.1,0,0.1,0,0.2,0c0,0,0,0,0,0c0.1,0.1,0.1,0.2,0.2,0.2
		c0,0.1,0.1,0.2,0.1,0.3c0.1,0,0.1,0,0.2,0c0,0,0,0,0,0c0.1,0.1,0.1,0.2,0.2,0.2c0,0.1,0.1,0.2,0.1,0.3c0.1,0,0.1,0,0.2,0
		c0,0,0,0,0,0c0.1,0.1,0.1,0.2,0.2,0.2c0,0.1,0.1,0.2,0.1,0.3c0.1,0,0.1,0,0.2,0c0,0,0,0,0,0c0.1,0.1,0.1,0.2,0.2,0.2
		c0,0.1,0.1,0.2,0.1,0.3c0.1,0,0.1,0,0.2,0c0,0,0,0,0,0c0.1,0.1,0.1,0.2,0.2,0.2c0,0,0,0,0,0c18.2-5.8,32.4-20.3,37.7-38.7
		c-0.1-0.1-0.2-0.2-0.3-0.3C121.9,88.1,121.7,87.9,121.6,87.7z"/>
	<g id="_x31_8_1_">
		<linearGradient id="SVGID_1_" gradientUnits="userSpaceOnUse" x1="44.6165" y1="72.8435" x2="90.3761" y2="72.8435">
			<stop  offset="0.5" style="stop-color:#FFFFFF"/>
			<stop  offset="0.5" style="stop-color:#F1F2F2"/>
		</linearGradient>
		<path class="st2" d="M90.1,67.2c0.8,3-0.8,5.7-1.6,8.3c-1.7,4.3-2.9,6.5-4.6,9c-0.4,1.3-0.7,2.6-1.1,3.9c-0.4,1.1-1,2.2-1.6,3.2
			c-0.4,1.8,0,3.8,0.2,5.6c0.2,1,0.3,2,0.6,3l-18.5,0c-1.8,0-3.8,0-5.9,0c-1.6-3.2-2.5-7.7-6.6-8.9c-1.5-0.3-3.4-0.5-4.1-2.2
			c-0.2-1.1,0-2.4,0.5-3.3c0-0.7,0.4-1.4-0.1-2c-0.5-0.5-1-1.1-0.8-1.8c0.2-0.4,0.6-0.8,0.4-1.3c-0.2-0.4-0.7-0.7-0.6-1.2
			c0.4-0.9,0.9-1.7,1-2.7c0-0.2-0.2-0.4-0.4-0.5c-1-0.5-2.6-1.1-2.5-2.5l0.1-0.5l3.9-5c0.9-1.4,2.4-2.7,1.8-4.5
			c-0.8-1.4-1.5-2.8-1.2-4.6C49,59.5,49,59.8,48.8,60c-0.3-0.9-0.1-2,0-2.9c-0.2,0.1-0.4,0.4-0.7,0.4c-0.4-4.6,4.6-7.4,8-9.1
			c5.5-2.4,11.9-3.5,18.3-2.8c2.7,0.3,5,1.4,7.2,2.8c2.2,1.5,4.4,3.6,5.5,6c0,0.8,0.8,1.3,1.2,2c0.8,1.5,1.5,3,1.5,4.8
			c0.8,1.4,0.7,3.6,0,5.1C89.8,66.6,90.1,66.9,90.1,67.2z"/>
		<path class="st3" d="M74.2,57.9c0.5,0.2,1-0.1,1.2-0.6l1.3-3.7c0.2-0.5-0.1-1-0.6-1.2c-0.5-0.2-1,0.1-1.2,0.6l-1.3,3.7
			C73.5,57.2,73.7,57.7,74.2,57.9z M64,54.8l2.1,3.8c0.1,0.2,0.3,0.4,0.5,0.4c0.2,0.1,0.5,0.1,0.8-0.1c0.5-0.2,0.6-0.8,0.4-1.3
			l-2.1-3.8c-0.2-0.5-0.8-0.6-1.3-0.4C63.9,53.8,63.7,54.3,64,54.8z M68.3,82.3l-5.1-1.8c-0.4-0.1-0.8,0.1-0.9,0.5
			c-0.1,0.4,0,0.8,0.4,1l5.1,1.8c0.4,0.1,0.8-0.1,0.9-0.5C68.9,82.9,68.7,82.4,68.3,82.3z M69.1,80.2L64,78.5
			c-0.4-0.1-0.8,0.1-0.9,0.5c-0.1,0.4,0,0.8,0.4,1l5.1,1.8c0.4,0.1,0.8-0.1,0.9-0.5C69.6,80.8,69.4,80.3,69.1,80.2z M73.5,59.3
			c-4.2-1.4-8.8,0.8-10.2,5C62.7,66,63,67.7,63.4,69c0.4,1.3,0.9,2.2,0.9,2.2c0.1,0.2,0.2,0.6,0.3,1c0,0.4,0,0.8-0.1,1l-0.4,1.2
			c-0.5,1.4,0.3,2.9,1.6,3.4l2.4,0.8c1.4,0.5,2.9-0.3,3.4-1.6l0.4-1.2c0.1-0.2,0.3-0.6,0.6-0.9c0.3-0.3,0.6-0.5,0.8-0.6
			c0,0,1-0.4,2.1-1.2c1.1-0.8,2.4-1.9,3-3.6C80,65.4,77.7,60.8,73.5,59.3z M84.2,60.5C84,60,83.4,59.8,82.9,60l-3.6,1.5
			c-0.5,0.2-0.7,0.8-0.5,1.2c0.1,0.3,0.3,0.4,0.6,0.5c0.2,0.1,0.4,0.1,0.7,0l3.6-1.5C84.1,61.5,84.4,61,84.2,60.5z"/>
	</g>
</g>
<g id="text">
</g>
<g id="header_1_">
</g>
</svg>
