<?xml version="1.0" encoding="utf-8"?>
<!-- Generator: Adobe Illustrator 21.0.0, SVG Export Plug-In . SVG Version: 6.00 Build 0)  -->
<svg version="1.1" xmlns="http://www.w3.org/2000/svg" xmlns:xlink="http://www.w3.org/1999/xlink" x="0px" y="0px"
	 viewBox="0 0 152 136.8" style="enable-background:new 0 0 152 136.8;" xml:space="preserve">
<style type="text/css">
	.st0{fill:#2C5871;}
	.st1{fill:#99B1BD;}
	.st2{fill:#FFC02B;}
	.st3{fill:#A6DAE9;}
	.st4{fill:#D1D3D4;}
	.st5{fill:#E6E7E8;}
	.st6{fill:#FFFFFF;}
	.st7{fill:url(#icon_2_);}
	.st8{fill:url(#SVGID_1_);}
	.st9{fill:url(#SVGID_2_);}
	.st10{fill:url(#SVGID_3_);}
	.st11{fill:url(#SVGID_4_);}
	.st12{fill:url(#SVGID_5_);}
</style>
<g id="background">
</g>
<g id="circles">
</g>
<g id="shadows">
</g>
<g id="icons">
	<g>
		<circle class="st1" cx="79" cy="68.8" r="57.1"/>
		<path class="st5" d="M133.7,80.4c-0.2-0.2-0.4-0.4-0.6-0.6c-0.2-0.2-0.4-0.4-0.6-0.6c-0.2-0.2-0.4-0.4-0.6-0.6
			c-0.2-0.2-0.4-0.4-0.6-0.6c-0.2-0.2-0.4-0.4-0.6-0.6c-0.2-0.2-0.4-0.4-0.6-0.6c-0.2-0.2-0.4-0.4-0.6-0.6c-0.2-0.2-0.4-0.4-0.6-0.6
			c-0.2-0.2-0.4-0.4-0.6-0.6c-0.2-0.2-0.4-0.4-0.6-0.6c-0.2-0.2-0.4-0.4-0.6-0.6c-0.2-0.2-0.4-0.4-0.6-0.6c-0.2-0.2-0.4-0.4-0.6-0.6
			c-0.2-0.2-0.4-0.4-0.6-0.6c-0.2-0.2-0.4-0.4-0.6-0.6c-0.2-0.2-0.4-0.4-0.6-0.6c-0.2-0.2-0.4-0.4-0.6-0.6c-0.2-0.2-0.4-0.4-0.6-0.6
			c-0.2-0.2-0.4-0.4-0.6-0.6c-0.2-0.2-0.4-0.4-0.6-0.6c-0.2-0.2-0.4-0.4-0.6-0.6c-0.2-0.2-0.4-0.4-0.6-0.6c-0.2-0.2-0.4-0.4-0.6-0.6
			c-0.2-0.2-0.4-0.4-0.6-0.6c-0.2-0.2-0.4-0.4-0.6-0.6c-0.2-0.2-0.4-0.4-0.6-0.6c-0.2-0.2-0.4-0.4-0.6-0.6c-0.2-0.2-0.4-0.4-0.6-0.6
			c-0.2-0.2-0.4-0.4-0.6-0.6c-0.2-0.2-0.4-0.4-0.6-0.6c-0.2-0.2-0.4-0.4-0.6-0.6c-0.2-0.2-0.4-0.4-0.6-0.6c-0.2-0.2-0.4-0.4-0.6-0.6
			c-0.2-0.2-0.4-0.4-0.6-0.6c-0.2-0.2-0.4-0.4-0.6-0.6c-0.2-0.2-0.4-0.4-0.6-0.6c-0.2-0.2-0.4-0.4-0.6-0.6c-0.2-0.2-0.4-0.4-0.6-0.6
			c-0.2-0.2-0.4-0.4-0.6-0.6c-0.2-0.2-0.4-0.4-0.6-0.6c-0.2-0.2-0.4-0.4-0.6-0.6c-0.2-0.2-0.4-0.4-0.6-0.6c-0.2-0.2-0.4-0.4-0.6-0.6
			c-0.2-0.2-0.4-0.4-0.6-0.6c-0.2-0.2-0.4-0.4-0.6-0.6c-0.2-0.2-0.4-0.4-0.6-0.6c-0.2-0.2-0.4-0.4-0.6-0.6c-0.2-0.2-0.4-0.4-0.6-0.6
			c-0.2-0.2-0.4-0.4-0.6-0.6c-0.2-0.2-0.4-0.4-0.6-0.6c-0.2-0.2-0.4-0.4-0.6-0.6c-0.2-0.2-0.4-0.4-0.6-0.6c-0.2-0.2-0.4-0.4-0.6-0.6
			c-0.2-0.2-0.4-0.4-0.6-0.6c-0.2-0.2-0.4-0.4-0.6-0.6c-0.2-0.2-0.4-0.4-0.6-0.6c-0.2-0.2-0.4-0.4-0.6-0.6c-0.2-0.2-0.4-0.4-0.6-0.6
			c-0.2-0.2-0.4-0.4-0.6-0.6c-0.2-0.2-0.4-0.4-0.6-0.6c-0.2-0.2-0.4-0.4-0.6-0.6c-0.2-0.2-0.4-0.4-0.6-0.6c-0.2-0.2-0.4-0.4-0.6-0.6
			c-0.2-0.2-0.4-0.4-0.6-0.6c-0.2-0.2-0.4-0.4-0.6-0.6c-0.2-0.2-0.4-0.4-0.6-0.6c-0.2-0.2-0.4-0.4-0.6-0.6c-0.2-0.2-0.4-0.4-0.6-0.6
			c-0.2-0.2-0.4-0.4-0.6-0.6c-0.2-0.2-0.4-0.4-0.6-0.6c-0.2-0.2-0.4-0.4-0.6-0.6c-1.1-1.3-2.8-2.1-4.7-2.1H68.4
			c-3.4,0-6.2,2.8-6.2,6.2v47.5c0,1.9,0.8,3.5,2.1,4.7c0.2,0.2,0.4,0.4,0.6,0.6c0.2,0.2,0.4,0.4,0.6,0.6c0.2,0.2,0.4,0.4,0.6,0.6
			c0.2,0.2,0.4,0.4,0.6,0.6c0.2,0.2,0.4,0.4,0.6,0.6c0.2,0.2,0.4,0.4,0.6,0.6c0.2,0.2,0.4,0.4,0.6,0.6c0.2,0.2,0.4,0.4,0.6,0.6
			c0.2,0.2,0.4,0.4,0.6,0.6c0.2,0.2,0.4,0.4,0.6,0.6c0.2,0.2,0.4,0.4,0.6,0.6c0.2,0.2,0.4,0.4,0.6,0.6c0.2,0.2,0.4,0.4,0.6,0.6
			c0.2,0.2,0.4,0.4,0.6,0.6c0.2,0.2,0.4,0.4,0.6,0.6c0.2,0.2,0.4,0.4,0.6,0.6c0.2,0.2,0.4,0.4,0.6,0.6c0.2,0.2,0.4,0.4,0.6,0.6
			c0.2,0.2,0.4,0.4,0.6,0.6c0.2,0.2,0.4,0.4,0.6,0.6c0.2,0.2,0.4,0.4,0.6,0.6c0.2,0.2,0.4,0.4,0.6,0.6c0.2,0.2,0.4,0.4,0.6,0.6
			c0.2,0.2,0.4,0.4,0.6,0.6c0.2,0.2,0.4,0.4,0.6,0.6c0.2,0.2,0.4,0.4,0.6,0.6c0.2,0.2,0.4,0.4,0.6,0.6c0.2,0.2,0.4,0.4,0.6,0.6
			c0.2,0.2,0.4,0.4,0.6,0.6c0.2,0.2,0.4,0.4,0.6,0.6c0.2,0.2,0.4,0.4,0.6,0.6c0.2,0.2,0.4,0.4,0.6,0.6c0.2,0.2,0.4,0.4,0.6,0.6
			c0.2,0.2,0.4,0.4,0.6,0.6c0.2,0.2,0.4,0.4,0.6,0.6c0.2,0.2,0.4,0.4,0.6,0.6c0.2,0.2,0.4,0.4,0.6,0.6c0.2,0.2,0.4,0.4,0.6,0.6
			c0.2,0.2,0.4,0.4,0.6,0.6c0.2,0.2,0.4,0.4,0.6,0.6c0.2,0.2,0.4,0.4,0.6,0.6c0.2,0.2,0.4,0.4,0.6,0.6c0.2,0.2,0.4,0.4,0.6,0.6
			c0.2,0.2,0.4,0.4,0.6,0.6c0.2,0.2,0.4,0.4,0.6,0.6c0.2,0.2,0.4,0.4,0.6,0.6c0.2,0.2,0.4,0.4,0.6,0.6c0.2,0.2,0.4,0.4,0.6,0.6
			c0.2,0.2,0.4,0.4,0.6,0.6c0,0,0,0,0.1,0.1c21.4-4.8,38.3-21.7,43.1-43.1c-0.2-0.2-0.3-0.3-0.5-0.5C134,80.7,133.9,80.5,133.7,80.4
			z"/>
		<g id="_x32__1_">
			<path class="st0" d="M89.5,38.8H68.4c-3.4,0-6.2,2.8-6.2,6.2v47.5c0,3.4,2.8,6.2,6.2,6.2h21.1c3.4,0,6.2-2.8,6.2-6.2V45
				C95.8,41.6,93,38.8,89.5,38.8z"/>
			<g>
				<path class="st6" d="M75.1,40.6c0-0.2,0.3-0.4,0.8-0.4h6.1c0.4,0,0.8,0.2,0.8,0.4v0.2c0,0.2-0.3,0.4-0.8,0.4h-6.1
					c-0.4,0-0.8-0.2-0.8-0.4V40.6z"/>
				<circle class="st6" cx="79" cy="42.9" r="0.7"/>
				<path class="st6" d="M82.8,95.6c0,0.4-0.3,0.8-0.8,0.8h-6.1c-0.4,0-0.8-0.3-0.8-0.8v-0.4c0-0.4,0.3-0.8,0.8-0.8h6.1
					c0.4,0,0.8,0.3,0.8,0.8V95.6z"/>
			</g>
			<linearGradient id="SVGID_1_" gradientUnits="userSpaceOnUse" x1="58.6113" y1="59.1954" x2="99.7952" y2="78.3998">
				<stop  offset="0.5" style="stop-color:#FFFFFF"/>
				<stop  offset="0.5092" style="stop-color:#F1F2F2"/>
			</linearGradient>
			<rect x="65.2" y="45" class="st8" width="28" height="47.5"/>
			<linearGradient id="SVGID_2_" gradientUnits="userSpaceOnUse" x1="67.9752" y1="76.6046" x2="86.8787" y2="76.6046">
				<stop  offset="0.4785" style="stop-color:#FFD100"/>
				<stop  offset="0.4785" style="stop-color:#FFB914"/>
			</linearGradient>
			<path class="st9" d="M86.2,72.8c-0.1-0.2-0.3-0.4-0.6-0.4l-2.5,0.4c-0.3-0.4-0.5-0.7-0.9-1.1l0.9-2.4c0.1-0.2,0-0.5-0.2-0.7
				l-2-1.1c-0.2-0.1-0.5,0-0.7,0.2l-1.5,2.1c-0.4-0.1-0.9-0.1-1.4-0.1l-1-2.3c-0.1-0.2-0.4-0.4-0.6-0.3l-2.2,0.7
				c-0.2,0.1-0.4,0.3-0.4,0.6l0.4,2.5c-0.4,0.3-0.7,0.5-1.1,0.9l-2.4-0.9c-0.2-0.1-0.5,0-0.7,0.2l-1.1,2c-0.1,0.2,0,0.5,0.2,0.7
				l2.1,1.5c-0.1,0.4-0.1,0.9-0.1,1.4l-2.3,1c-0.2,0.1-0.4,0.4-0.3,0.6l0.7,2.2c0.1,0.2,0.3,0.4,0.6,0.4l2.5-0.4
				c0.3,0.4,0.5,0.7,0.9,1.1l-0.9,2.4c-0.1,0.2,0,0.5,0.2,0.7l2,1.1c0.2,0.1,0.5,0,0.7-0.2l1.5-2.1c0.4,0.1,0.9,0.1,1.4,0.1l1,2.3
				c0.1,0.2,0.4,0.4,0.6,0.3l2.2-0.7c0.2-0.1,0.4-0.3,0.4-0.6l-0.4-2.5c0.4-0.3,0.7-0.5,1.1-0.9l2.4,0.9c0.2,0.1,0.5,0,0.7-0.2
				l1.1-2c0.1-0.2,0-0.5-0.2-0.7l-2.1-1.5c0.1-0.4,0.1-0.9,0.1-1.4l2.3-1c0.2-0.1,0.4-0.4,0.3-0.6L86.2,72.8z M78.6,80.5
				c-2.2,0.7-4.4-0.6-5.1-2.7c-0.7-2.2,0.6-4.4,2.7-5.1c2.2-0.7,4.4,0.6,5.1,2.7C82,77.6,80.8,79.9,78.6,80.5z M79.9,75.8
				c0.4,1.4-0.4,2.8-1.8,3.3c-1.4,0.4-2.8-0.4-3.3-1.8c-0.4-1.4,0.4-2.9,1.7-3.3C78.1,73.7,79.5,74.5,79.9,75.8z"/>
			<path class="st1" d="M90.3,63.6l-1.4-0.9c0-0.3,0-0.6,0-0.9c0-0.3-0.1-0.6-0.2-0.9l1.2-1.2c0.2-0.2,0.2-0.4,0-0.6l-0.8-1.1
				c-0.1-0.2-0.4-0.2-0.6-0.1L87,58.6c-0.5-0.4-1.1-0.6-1.7-0.8l-0.4-1.7c-0.1-0.2-0.3-0.4-0.5-0.3l-1.3,0.1c-0.2,0-0.4,0.2-0.4,0.4
				l-0.1,1.7c-0.6,0.3-1.1,0.6-1.5,1.1l-1.7-0.4c-0.2-0.1-0.4,0.1-0.5,0.3l-0.5,1.2c-0.1,0.2,0,0.5,0.2,0.6l1.4,0.9
				c0,0.3,0,0.6,0,0.9c0,0.3,0.1,0.6,0.2,0.9L79,64.8c-0.2,0.2-0.2,0.4-0.1,0.6l0.8,1.1c0.1,0.2,0.4,0.2,0.6,0.1l1.5-0.8
				c0.5,0.4,1.1,0.6,1.7,0.8l0.4,1.7c0.1,0.2,0.3,0.4,0.5,0.3l1.3-0.1c0.2,0,0.4-0.2,0.4-0.4l0.1-1.7c0.6-0.3,1.1-0.6,1.5-1.1
				l1.7,0.5c0.2,0.1,0.4-0.1,0.5-0.3l0.5-1.2C90.6,64,90.5,63.7,90.3,63.6z M84.7,64.5c-1.3,0.1-2.5-0.8-2.6-2.1
				c-0.1-1.3,0.8-2.5,2.1-2.6c1.3-0.1,2.5,0.8,2.6,2.1C86.9,63.2,86,64.4,84.7,64.5z"/>
		</g>
	</g>
</g>
<g id="text">
</g>
<g id="header_1_">
</g>
</svg>
