<?xml version="1.0" encoding="utf-8"?>
<!-- Generator: Adobe Illustrator 21.0.0, SVG Export Plug-In . SVG Version: 6.00 Build 0)  -->
<svg version="1.1" xmlns="http://www.w3.org/2000/svg" xmlns:xlink="http://www.w3.org/1999/xlink" x="0px" y="0px"
	 viewBox="0 0 152 136.8" style="enable-background:new 0 0 152 136.8;" xml:space="preserve">
<style type="text/css">
	.st0{fill:#2C5871;}
	.st1{fill:#99B1BD;}
	.st2{fill:#FFC02B;}
	.st3{fill:#A6DAE9;}
	.st4{fill:#D1D3D4;}
	.st5{fill:#E6E7E8;}
	.st6{fill:#FFFFFF;}
	.st7{fill:url(#icon_2_);}
	.st8{fill:url(#SVGID_1_);}
	.st9{fill:url(#SVGID_2_);}
	.st10{fill:url(#SVGID_3_);}
	.st11{fill:url(#SVGID_4_);}
	.st12{fill:url(#SVGID_5_);}
</style>
<g id="background">
</g>
<g id="circles">
	<circle class="st3" cx="79.7" cy="68.4" r="57.1"/>
</g>
<g id="shadows">
	<path class="st5" d="M131.3,90.8L131.3,90.8c-0.2-0.2-0.4-0.4-0.6-0.6c0,0,0,0,0,0c-0.2-0.2-0.4-0.4-0.6-0.6
		c-0.2-0.2-0.4-0.4-0.6-0.6c0,0,0,0,0,0c-0.2-0.2-0.4-0.4-0.6-0.6c-0.2-0.2-0.4-0.4-0.6-0.6c0,0,0,0,0,0c-0.2-0.2-0.4-0.4-0.6-0.6
		c-0.2-0.2-0.4-0.4-0.6-0.6c-0.2-0.2-0.4-0.4-0.6-0.6c-0.2-0.2-0.4-0.4-0.6-0.7l0,0c-0.2-0.2-0.4-0.4-0.6-0.6
		c-0.2-0.2-0.4-0.4-0.6-0.6c0,0,0,0,0,0c-0.2-0.2-0.4-0.4-0.6-0.6c0,0,0,0,0,0c-0.2-0.2-0.4-0.4-0.6-0.6c0,0,0,0,0,0
		c-0.2-0.2-0.4-0.4-0.6-0.6c0,0,0,0,0,0c-0.2-0.2-0.4-0.4-0.6-0.6c0,0,0,0,0,0c-0.2-0.2-0.4-0.4-0.6-0.6c0,0,0,0,0,0
		c-0.2-0.2-0.4-0.4-0.6-0.6c-0.2-0.2-0.4-0.5-0.7-0.7c-0.2-0.2-0.4-0.4-0.6-0.6c-0.2-0.2-0.4-0.4-0.6-0.6c-0.2-0.2-0.4-0.4-0.7-0.7
		c0,0,0,0,0,0c-0.2-0.2-0.4-0.4-0.6-0.6c-0.2-0.2-0.4-0.4-0.7-0.7c0,0,0,0,0,0c-0.2-0.2-0.4-0.4-0.6-0.6c0,0,0,0,0,0
		c-0.2-0.2-0.4-0.4-0.6-0.6c0,0,0,0,0,0c-0.2-0.2-0.4-0.4-0.6-0.6c-0.2-0.2-0.4-0.4-0.6-0.6c0,0,0,0,0,0c-0.2-0.2-0.4-0.4-0.6-0.6
		c0,0,0,0,0,0c-0.2-0.2-0.4-0.4-0.6-0.6c0,0,0,0,0,0c-0.2-0.2-0.4-0.4-0.6-0.6c0,0,0,0,0,0c-0.2-0.2-0.4-0.4-0.6-0.6c0,0,0,0,0,0
		c-0.2-0.2-0.4-0.4-0.6-0.6c0,0,0,0,0,0c-0.2-0.2-0.4-0.4-0.6-0.6c-0.2-0.2-0.4-0.4-0.6-0.6c0,0,0,0,0,0c-0.2-0.2-0.4-0.4-0.6-0.6
		c0,0,0,0,0,0c-0.2-0.2-0.4-0.4-0.6-0.6c-0.2-0.2-0.4-0.4-0.6-0.6c0,0,0,0,0,0c-0.2-0.2-0.4-0.4-0.6-0.6c-0.2-0.2-0.4-0.5-0.7-0.7
		c-0.2-0.2-0.4-0.4-0.6-0.6c-0.2-0.2-0.4-0.4-0.6-0.6c0,0,0,0,0,0c-0.2-0.2-0.4-0.4-0.6-0.6c0,0,0,0,0,0c-0.2-0.2-0.4-0.4-0.6-0.6
		c-0.2-0.2-0.4-0.4-0.7-0.7c0,0,0,0,0,0c-0.2-0.2-0.4-0.4-0.6-0.6c0,0,0,0,0,0c-0.2-0.2-0.4-0.4-0.6-0.6c-0.2-0.2-0.4-0.4-0.7-0.7
		c0,0,0,0,0,0c-0.2-0.2-0.4-0.4-0.6-0.6c-0.2-0.2-0.4-0.5-0.7-0.7c-0.2-0.2-0.4-0.4-0.6-0.6c0,0,0,0,0,0c-0.2-0.2-0.4-0.4-0.6-0.6
		c-0.2-0.2-0.4-0.4-0.7-0.7c0,0,0,0,0,0c-0.2-0.2-0.4-0.4-0.6-0.6c0,0,0,0,0,0c-0.2-0.2-0.4-0.4-0.6-0.6c0,0,0,0,0,0
		c-0.2-0.2-0.4-0.4-0.6-0.6c-0.2-0.2-0.4-0.4-0.6-0.6c-0.2-0.2-0.4-0.4-0.7-0.7c0,0,0,0,0,0c-0.2-0.2-0.4-0.4-0.6-0.6
		c-0.2-0.2-0.4-0.4-0.7-0.7c-0.2-0.2-0.4-0.4-0.6-0.6c0,0,0,0,0,0c-0.2-0.2-0.4-0.4-0.6-0.6c-0.2-0.2-0.4-0.5-0.7-0.7c0,0,0,0,0,0
		c-0.2-0.2-0.4-0.4-0.6-0.6c0,0,0,0,0,0c-0.2-0.2-0.4-0.4-0.6-0.6c-0.2-0.2-0.4-0.4-0.7-0.7c-0.2-0.2-0.4-0.4-0.7-0.7c0,0,0,0,0,0
		c-0.2-0.2-0.4-0.4-0.6-0.6c0,0,0,0,0,0c-0.2-0.2-0.4-0.4-0.6-0.6c-0.2-0.2-0.4-0.4-0.7-0.7c0,0,0,0,0,0c-0.2-0.2-0.4-0.4-0.6-0.6
		c-0.2-0.2-0.4-0.4-0.6-0.6c-0.2-0.2-0.4-0.4-0.7-0.7c0,0,0,0,0,0c-0.2-0.2-0.4-0.4-0.6-0.6c0,0,0,0,0,0c-0.2-0.2-0.4-0.4-0.6-0.6
		c-0.2-0.2-0.4-0.4-0.7-0.7c-0.2-0.2-0.4-0.4-0.7-0.7c0,0,0,0,0,0c-0.2-0.2-0.4-0.4-0.6-0.6c-0.2-0.2-0.4-0.5-0.7-0.7c0,0,0,0,0,0
		c-0.2-0.2-0.4-0.4-0.6-0.6c-0.2-0.2-0.4-0.5-0.7-0.7c0,0-0.1-0.1-0.1-0.1c-0.2-0.1-0.3-0.3-0.5-0.4c0,0,0,0-0.1,0
		c-0.5-0.4-1.1-0.7-1.7-1h0c-0.2-0.1-0.5-0.2-0.7-0.3c0,0,0,0,0,0c0,0,0,0,0,0c-0.1,0-0.1,0-0.2-0.1c0,0,0,0,0,0
		c-0.3-0.1-0.6-0.2-0.9-0.3c0,0-0.1,0-0.1,0c-0.3-0.1-0.6-0.1-0.8-0.1c-0.1,0-0.1,0-0.2,0c-0.3,0-0.7-0.1-1-0.1
		c-5.2,0-9.4,4.2-9.4,9.3c0,0.3,0,0.6,0,0.9c0,0.1,0,0.2,0,0.3c0,0.2,0.1,0.4,0.1,0.6c0,0.1,0,0.2,0.1,0.3c0,0.2,0.1,0.4,0.1,0.6
		c0,0.1,0,0.2,0.1,0.3c0.1,0.3,0.2,0.5,0.3,0.7c0,0.1,0.1,0.2,0.1,0.2c0.1,0.2,0.1,0.3,0.2,0.5c0.1,0.1,0.1,0.2,0.2,0.3
		c0.1,0.1,0.1,0.2,0.2,0.3c0.1,0.1,0.2,0.2,0.2,0.4c0.1,0.1,0.1,0.2,0.2,0.3c0.3,0.4,0.7,0.8,1.1,1.2c0.2,0.2,0.4,0.4,0.7,0.7
		c0.2,0.2,0.4,0.4,0.6,0.6c0.2,0.2,0.4,0.4,0.6,0.6c0.2,0.2,0.4,0.5,0.7,0.7c0.2,0.2,0.4,0.4,0.6,0.6c0.2,0.2,0.4,0.4,0.6,0.7
		c0.1,0.1,0.1,0.1,0.2,0.2H69l0,0c-2.4,0-4.2,0-4.2,0c-9.7,0-10.1,10.5-10.1,10.5l0,25.2c0,0,0,0.9,0.3,1.8c0,0,0,0.1,0,0.1
		c0,0,0,0.1,0,0.1c0.2,0.5,0.5,1,1,1.3c0.2,0.2,0.4,0.5,0.6,0.6c0.2,0.2,0.4,0.5,0.6,0.6c0.2,0.2,0.4,0.5,0.6,0.6
		c0.2,0.2,0.4,0.5,0.6,0.6c0.2,0.2,0.4,0.5,0.6,0.6c0.2,0.2,0.4,0.5,0.6,0.6c0.2,0.2,0.4,0.5,0.6,0.6c0.2,0.2,0.4,0.5,0.6,0.6
		c0.2,0.2,0.4,0.5,0.6,0.6c0.2,0.2,0.4,0.5,0.6,0.6c0.2,0.2,0.4,0.5,0.6,0.6c0.2,0.2,0.4,0.5,0.6,0.6c0.2,0.2,0.4,0.5,0.6,0.6
		c0.2,0.2,0.4,0.5,0.6,0.6c0.2,0.2,0.4,0.5,0.6,0.6c0.2,0.2,0.4,0.5,0.6,0.6c0.2,0.2,0.4,0.5,0.6,0.6c0.2,0.2,0.4,0.5,0.6,0.6
		c0.2,0.2,0.4,0.5,0.6,0.6c0.2,0.2,0.4,0.5,0.6,0.6c0.2,0.2,0.4,0.5,0.6,0.6c0.2,0.2,0.4,0.5,0.6,0.6c0.2,0.2,0.4,0.5,0.6,0.6
		c0.2,0.2,0.4,0.5,0.6,0.6c0.2,0.2,0.4,0.5,0.6,0.6c0.2,0.2,0.4,0.5,0.6,0.6c0.2,0.2,0.4,0.5,0.6,0.6c0.2,0.2,0.4,0.5,0.6,0.6
		c0.2,0.2,0.4,0.5,0.6,0.6c0.2,0.2,0.4,0.5,0.6,0.6c0.2,0.2,0.4,0.5,0.6,0.6c0.2,0.2,0.4,0.5,0.6,0.6c0.2,0.2,0.4,0.5,0.6,0.6
		c0.2,0.2,0.4,0.5,0.6,0.6c0.2,0.2,0.4,0.5,0.6,0.6c0.2,0.2,0.4,0.5,0.6,0.6c0.2,0.2,0.4,0.5,0.6,0.6c0.2,0.2,0.4,0.5,0.6,0.6
		c0.2,0.2,0.4,0.5,0.6,0.6c0.2,0.2,0.4,0.5,0.6,0.6c0.2,0.2,0.4,0.5,0.6,0.6c0.2,0.2,0.4,0.5,0.6,0.6c0.2,0.2,0.4,0.5,0.6,0.6
		c0.2,0.2,0.4,0.5,0.6,0.6c0.2,0.2,0.4,0.5,0.6,0.6c0,0.1,0.1,0.1,0.2,0.2c20.9-2,38.6-15.3,46.7-33.8c0,0,0,0,0,0
		C131.7,91.2,131.5,91,131.3,90.8z"/>
</g>
<g id="icons">
	<g id="_x38__1_">
		<g>
			<linearGradient id="SVGID_1_" gradientUnits="userSpaceOnUse" x1="54.6997" y1="78.5076" x2="91.5826" y2="78.5076">
				<stop  offset="0.5" style="stop-color:#FFFFFF"/>
				<stop  offset="0.5" style="stop-color:#F1F2F2"/>
			</linearGradient>
			<path class="st8" d="M79.1,98.2l0.8-3.2c-0.1-0.1-0.2-0.2-0.3-0.3l-2.6,1.4l-1.2-1.5l-2.5-3.2l2.2-2.3c-0.1-0.1-0.1-0.3-0.2-0.4
				l-2.9-0.1l-0.8-6l3.1-0.9c0-0.2,0-0.3,0.1-0.4l-2.5-1.5l0.7-1.8l1.6-3.8l3.2,0.8c0.1-0.1,0.2-0.2,0.3-0.3L76.7,72l4.8-3.7l2.1,2
				c0,0,0-0.1,0-0.1h0.5h0.3l0.1-2.7l6-0.8l1,3.2c0.1,0,0.2,0,0.3,0.1l0.1-0.1c0-1,0-1.8,0-2.2c0-0.3,0-0.7,0-1c0-0.1,0-0.2,0-0.3
				c0-0.2,0-0.4-0.1-0.7c0-0.1,0-0.2-0.1-0.3c0-0.2-0.1-0.4-0.1-0.6c0-0.1,0-0.2-0.1-0.3c-0.1-0.2-0.1-0.5-0.2-0.7
				c0-0.1,0-0.1-0.1-0.2c-0.1-0.3-0.2-0.6-0.3-0.8c0-0.1-0.1-0.2-0.1-0.2c-0.1-0.2-0.2-0.4-0.3-0.5c-0.1-0.1-0.1-0.2-0.2-0.3
				c-0.1-0.2-0.2-0.3-0.3-0.5c-0.1-0.1-0.1-0.2-0.2-0.3c-0.1-0.2-0.2-0.3-0.4-0.5c-0.1-0.1-0.1-0.2-0.2-0.2
				c-0.2-0.2-0.4-0.4-0.6-0.6c-0.1,0-0.1-0.1-0.2-0.1c-0.2-0.1-0.3-0.3-0.5-0.4c-0.1-0.1-0.2-0.1-0.3-0.2c-0.2-0.1-0.3-0.2-0.5-0.3
				c-0.1-0.1-0.2-0.1-0.3-0.2c-0.2-0.1-0.3-0.2-0.5-0.3c-0.1,0-0.2-0.1-0.3-0.1c-0.2-0.1-0.5-0.2-0.7-0.3c0,0-0.1,0-0.1,0
				c0,0,0,0,0,0c0,0,0,0,0,0c-0.9-0.3-1.9-0.5-3-0.5c-0.9,0-2.7,0-4.9,0l-0.4,0.4l-2.9,2.5l2.1,5.6l-0.1,0.2l0.1,0.2l-2.9,6.4
				l-2.6-6.3l0.1-0.2l-0.1-0.2l1.9-5.7l-2.7-2.5L69,57.3c-2.4,0-4.2,0-4.2,0c-9.7,0-10.1,10.5-10.1,10.5l0,25.2c0,0,0,0.9,0.3,1.8
				c0,0,0,0.1,0,0.1c0,0,0,0.1,0,0.1c0.3,0.7,0.8,1.4,1.8,1.7c0,0,0,0-0.1-0.1c0.4,0.1,0.8,0.2,1.3,0.2c3.5,0,3.4-3.9,3.4-3.9V70.2
				h0.9c0,0,0,0.3,0,0.8c0,3.2,0,16.2,0,28.8h9.6c0-4,0-6.8,0-6.8h2c0,0,0,2.8,0,6.8h9l-0.1,0L79.1,98.2z"/>
			<linearGradient id="SVGID_2_" gradientUnits="userSpaceOnUse" x1="64.234" y1="46.3591" x2="83.0143" y2="46.3591">
				<stop  offset="0.5" style="stop-color:#FFFFFF"/>
				<stop  offset="0.5" style="stop-color:#F1F2F2"/>
			</linearGradient>
			<path class="st9" d="M64.3,47.5c0,0.2,0.1,0.4,0.1,0.6c0,0.1,0,0.2,0.1,0.3c0,0.2,0.1,0.4,0.1,0.6c0,0.1,0,0.2,0.1,0.3
				c0.1,0.3,0.2,0.5,0.3,0.7c0,0.1,0.1,0.2,0.1,0.2c0.1,0.2,0.1,0.3,0.2,0.5c0.1,0.1,0.1,0.2,0.2,0.3c0.1,0.1,0.1,0.2,0.2,0.3
				c0.1,0.1,0.2,0.2,0.2,0.4c0.1,0.1,0.1,0.2,0.2,0.3c0.4,0.5,0.8,0.9,1.2,1.3c0,0,0.1,0.1,0.1,0.1c0.2,0.1,0.3,0.3,0.5,0.4
				c0,0,0.1,0.1,0.1,0.1c0.7,0.5,1.6,1,2.5,1.3c0,0,0,0,0,0h0c0.4,0.1,0.7,0.2,1.1,0.3c0,0,0,0,0,0c0.3,0.1,0.6,0.1,0.9,0.1
				c0,0,0.1,0,0.1,0c0.3,0,0.6,0.1,1,0.1c5.2,0,9.4-4.2,9.4-9.3c0-0.3,0-0.6,0-0.9c0-0.1,0-0.2,0-0.3c0-0.2-0.1-0.4-0.1-0.6
				c0-0.1,0-0.2-0.1-0.3c0-0.2-0.1-0.4-0.1-0.6c0-0.1,0-0.2-0.1-0.3c-0.1-0.3-0.2-0.5-0.3-0.7c0-0.1-0.1-0.2-0.1-0.3
				c-0.1-0.1-0.1-0.3-0.2-0.4c-0.1-0.1-0.1-0.2-0.2-0.4c-0.1-0.1-0.1-0.2-0.2-0.3c-0.1-0.1-0.2-0.2-0.2-0.4
				c-0.1-0.1-0.1-0.2-0.2-0.2c-0.4-0.5-0.8-0.9-1.2-1.3c0,0-0.1-0.1-0.1-0.1c-0.2-0.1-0.3-0.3-0.5-0.4c0,0,0,0-0.1,0
				c-0.5-0.4-1.1-0.7-1.7-1h0c-0.2-0.1-0.5-0.2-0.7-0.3c0,0,0,0,0,0c0,0,0,0,0,0c-0.1,0-0.1,0-0.2-0.1c0,0,0,0,0,0
				c-0.3-0.1-0.6-0.2-0.9-0.3c0,0-0.1,0-0.1,0c-0.3-0.1-0.6-0.1-0.8-0.1c-0.1,0-0.1,0-0.2,0c-0.3,0-0.7-0.1-1-0.1
				c-5.2,0-9.4,4.2-9.4,9.3c0,0.3,0,0.6,0,0.9C64.3,47.3,64.3,47.4,64.3,47.5z"/>
			<polygon class="st0" points="69,57.3 69,57.3 69.4,57.6 72.1,60.1 72.2,60.2 70.3,66 70.2,66.2 72.8,72.5 75.8,66.1 75.7,65.9 
				73.6,60.2 73.7,60.1 76.6,57.6 77,57.3 77,57.3 			"/>
		</g>
		<g>
			<path class="st0" d="M98.8,96l0.7-0.5L98.1,93c0.5-0.5,0.9-1,1.3-1.5l3,0.7l0.3-0.8l0.8-2l0.3-0.8l-2.3-1.4
				c0.2-0.7,0.3-1.3,0.4-2l2.9-0.8l-0.1-0.8l-0.3-2.1l-0.1-0.8l-2.7-0.1c-0.2-0.7-0.4-1.3-0.7-2l2-2.1l-0.5-0.7L101,74l-0.5-0.7
				L98,74.7c-0.5-0.5-1-0.9-1.6-1.3l0.7-3l-0.8-0.3l-2-0.8L93.6,69l-1.5,2.4c-0.6-0.2-1.3-0.3-1.9-0.3l-0.9-3l-0.8,0.1l-2.1,0.3
				l-0.8,0.1l-0.1,2.9c-0.6,0.2-1.3,0.4-1.9,0.7L81.3,70l-0.7,0.5L79,71.8l-0.7,0.5l1.4,2.5c-0.5,0.5-0.9,1-1.3,1.5l-3-0.7l-0.3,0.8
				l-0.8,2l-0.3,0.8l2.3,1.4c-0.2,0.7-0.3,1.3-0.4,2L73,83.5l0.1,0.8l0.3,2.1l0.1,0.8l2.7,0.1c0.2,0.7,0.4,1.3,0.7,2l-2,2.2l0.5,0.7
				l1.3,1.7l0.5,0.7l2.4-1.3c0.5,0.5,1,0.9,1.6,1.3l-0.7,3l0.8,0.3l2,0.8l0.8,0.3l1.5-2.4c0.6,0.2,1.3,0.3,2,0.3l0.9,3l0.8-0.1
				l2.1-0.3l0.8-0.1l0.1-2.9c0.6-0.2,1.3-0.4,1.9-0.7l2.2,2.1l0.7-0.5L98.8,96z"/>
			<circle class="st2" cx="88.9" cy="83.9" r="11"/>
			<path class="st6" d="M96.4,77.1c-0.9-0.9-2.4-0.9-3.3,0l-5.8,5.8l3.3,3.3l5.8-5.8C97.3,79.4,97.3,78,96.4,77.1z M88.9,82.5
				l4.9-4.9c0.1-0.1,0.3-0.1,0.4,0c0.1,0.1,0.1,0.3,0,0.4l-4.9,4.9L88.9,82.5z M89.7,83.4L95,78c0.1-0.1,0.3-0.1,0.4,0
				c0.1,0.1,0.1,0.3,0,0.4l-5.3,5.3L89.7,83.4z M95.8,79.7l-4.9,4.9l-0.4-0.4l4.9-4.9c0.1-0.1,0.3-0.1,0.4,0
				C96,79.4,96,79.5,95.8,79.7z M88.7,85.7L86,88.5l0.3,0.3l-0.4,0.7l-3.5,2.1l-0.6-0.6l2.1-3.5l0.6-0.3l0.3,0.3l2.7-2.7L88.7,85.7z
				 M84.3,83.6c-2,0-3.7-1.6-3.7-3.7c0-0.4,0.1-0.9,0.2-1.3c0.1,0.1,0.1,0.2,0.2,0.2l1.3,1.3c0.7,0.7,1.8,0.7,2.4,0
				c0.7-0.7,0.7-1.8,0-2.4l-1.3-1.3c0,0-0.1-0.1-0.1-0.1c0.3-0.1,0.6-0.1,0.9-0.1c2,0,3.7,1.6,3.7,3.7C88,82,86.3,83.6,84.3,83.6z
				 M92.6,85l-2.9,2.9l2.9,2.9c0.8,0.8,2.1,0.8,2.9,0c0.8-0.8,0.8-2.1,0-2.9L92.6,85z M94.7,90c-0.3,0.3-0.9,0.3-1.2,0
				c-0.3-0.3-0.3-0.9,0-1.2c0.3-0.3,0.9-0.3,1.2,0C95.1,89.1,95.1,89.7,94.7,90z"/>
		</g>
	</g>
</g>
<g id="text">
</g>
<g id="header_1_">
</g>
</svg>
