<?xml version="1.0" encoding="utf-8"?>
<!-- Generator: Adobe Illustrator 21.0.0, SVG Export Plug-In . SVG Version: 6.00 Build 0)  -->
<svg version="1.1" xmlns="http://www.w3.org/2000/svg" xmlns:xlink="http://www.w3.org/1999/xlink" x="0px" y="0px"
	 viewBox="0 0 152 136.8" style="enable-background:new 0 0 152 136.8;" xml:space="preserve">
<style type="text/css">
	.st0{fill:#2C5871;}
	.st1{fill:#99B1BD;}
	.st2{fill:#FFC02B;}
	.st3{fill:#A6DAE9;}
	.st4{fill:#D1D3D4;}
	.st5{fill:#E6E7E8;}
	.st6{fill:#FFFFFF;}
	.st7{fill:url(#icon_2_);}
	.st8{fill:url(#SVGID_1_);}
	.st9{fill:url(#SVGID_2_);}
	.st10{fill:url(#SVGID_3_);}
	.st11{fill:url(#SVGID_4_);}
	.st12{fill:url(#SVGID_5_);}
</style>
<g id="background">
</g>
<g id="circles">
	<ellipse class="st2" cx="77.9" cy="68.4" rx="57.1" ry="57.1"/>
</g>
<g id="shadows">
	<path class="st5" d="M133.4,79.1c-0.1-0.2-0.3-0.4-0.6-0.6c-0.1-0.2-0.3-0.4-0.6-0.6c-0.1-0.2-0.3-0.4-0.6-0.6
		c-0.1-0.2-0.3-0.4-0.6-0.6c-0.1-0.2-0.3-0.4-0.6-0.6c-0.1-0.2-0.3-0.4-0.6-0.6c-0.1-0.2-0.3-0.4-0.6-0.6c-0.1-0.2-0.3-0.4-0.6-0.6
		c-0.1-0.2-0.3-0.4-0.6-0.6c-0.1-0.2-0.3-0.4-0.6-0.6c-0.1-0.2-0.3-0.4-0.6-0.6c-0.1-0.2-0.3-0.4-0.6-0.6c-0.1-0.2-0.3-0.4-0.6-0.6
		c-0.1-0.2-0.3-0.4-0.6-0.6c-0.1-0.2-0.3-0.4-0.6-0.6c-0.1-0.2-0.3-0.4-0.6-0.6c-0.1-0.2-0.3-0.4-0.6-0.6c-0.1-0.2-0.3-0.4-0.6-0.6
		c-0.1-0.2-0.3-0.4-0.6-0.6c-0.1-0.2-0.3-0.4-0.6-0.6c-0.1-0.2-0.3-0.4-0.6-0.6c-0.1-0.2-0.3-0.4-0.6-0.6c-0.1-0.2-0.3-0.4-0.6-0.6
		c-0.1-0.2-0.3-0.4-0.6-0.6c-0.1-0.2-0.3-0.4-0.6-0.6c-0.1-0.2-0.3-0.4-0.6-0.6c-0.1-0.2-0.3-0.4-0.6-0.6c-0.1-0.2-0.3-0.4-0.6-0.6
		c-0.1-0.2-0.3-0.4-0.6-0.6c-0.1-0.2-0.3-0.4-0.6-0.6c-0.1-0.2-0.3-0.4-0.6-0.6c-0.1-0.2-0.3-0.4-0.6-0.6c-0.1-0.2-0.3-0.4-0.6-0.6
		c-0.1-0.2-0.3-0.4-0.6-0.6c-0.1-0.2-0.3-0.4-0.6-0.6c-0.1-0.2-0.3-0.4-0.6-0.6c-0.1-0.2-0.3-0.4-0.6-0.6c-0.1-0.2-0.3-0.4-0.6-0.6
		c-0.1-0.2-0.3-0.4-0.6-0.6c-0.1-0.2-0.3-0.4-0.6-0.6c-0.1-0.2-0.3-0.4-0.6-0.6c-0.1-0.2-0.3-0.4-0.6-0.6c-0.1-0.2-0.3-0.4-0.6-0.6
		c-0.1-0.2-0.3-0.4-0.6-0.6c-0.1-0.2-0.3-0.4-0.6-0.6c-0.1-0.2-0.3-0.4-0.6-0.6c-0.1-0.2-0.3-0.4-0.6-0.6c-0.1-0.2-0.3-0.4-0.6-0.6
		c-0.1-0.2-0.3-0.4-0.6-0.6c-0.1-0.2-0.3-0.4-0.6-0.6c-0.1-0.2-0.3-0.4-0.6-0.6c-0.1-0.2-0.3-0.4-0.6-0.6c-0.3-0.5-0.9-0.8-1.5-0.8
		H52.7c-1,0-1.8,0.8-1.8,1.8v31.9c0,0.2,0.1,0.5,0.1,0.7h0.4c0,0.2,0.1,0.4,0.1,0.6H52c0,0.2,0.1,0.4,0.1,0.6h0.4c0,0.1,0,0.1,0,0.2
		H51h-7c0,0,0,1.3,1,2c0.1,0.2,0.3,0.4,0.6,0.6c0.1,0.2,0.3,0.4,0.6,0.6c0.1,0.2,0.3,0.4,0.6,0.6c0.1,0.2,0.3,0.4,0.6,0.6
		c0.1,0.2,0.3,0.4,0.6,0.6c0.1,0.2,0.3,0.4,0.6,0.6c0.1,0.2,0.3,0.4,0.6,0.6c0.1,0.2,0.3,0.4,0.6,0.6c0.1,0.2,0.3,0.4,0.6,0.6
		c0.1,0.2,0.3,0.4,0.6,0.6c0.1,0.2,0.3,0.4,0.6,0.6c0.1,0.2,0.3,0.4,0.6,0.6c0.1,0.2,0.3,0.4,0.6,0.6c0.1,0.2,0.3,0.4,0.6,0.6
		c0.1,0.2,0.3,0.4,0.6,0.6c0.1,0.2,0.3,0.4,0.6,0.6c0.1,0.2,0.3,0.4,0.6,0.6c0.1,0.2,0.3,0.4,0.6,0.6c0.1,0.2,0.3,0.4,0.6,0.6
		c0.1,0.2,0.3,0.4,0.6,0.6c0.1,0.2,0.3,0.4,0.6,0.6c0.1,0.2,0.3,0.4,0.6,0.6c0.1,0.2,0.3,0.4,0.6,0.6c0.1,0.2,0.3,0.4,0.6,0.6
		c0.1,0.2,0.3,0.4,0.6,0.6c0.1,0.2,0.3,0.4,0.6,0.6c0.1,0.2,0.3,0.4,0.6,0.6c0.1,0.2,0.3,0.4,0.6,0.6c0.1,0.2,0.3,0.4,0.6,0.6
		c0.1,0.2,0.3,0.4,0.6,0.6c0.1,0.2,0.3,0.4,0.6,0.6c0.1,0.2,0.3,0.4,0.6,0.6c0.1,0.2,0.3,0.4,0.6,0.6c0.1,0.2,0.3,0.4,0.6,0.6
		c0.1,0.2,0.3,0.4,0.6,0.6c0.1,0.2,0.3,0.4,0.6,0.6c0.1,0.2,0.3,0.4,0.6,0.6c0.1,0.2,0.3,0.4,0.6,0.6c0.1,0.2,0.3,0.4,0.6,0.6
		c0.1,0.2,0.3,0.4,0.6,0.6c0.1,0.2,0.3,0.4,0.6,0.6c0.1,0.2,0.3,0.4,0.6,0.6c0.1,0.2,0.3,0.4,0.6,0.6c0.1,0.2,0.3,0.4,0.6,0.6
		c0.1,0.2,0.3,0.4,0.6,0.6c0.1,0.2,0.3,0.4,0.6,0.6c0.1,0.2,0.3,0.4,0.6,0.6c0.1,0.2,0.3,0.4,0.6,0.6c0.1,0.2,0.3,0.4,0.6,0.6
		c0.1,0.2,0.3,0.4,0.6,0.6c0.1,0.2,0.3,0.4,0.6,0.6c0.1,0.2,0.3,0.4,0.6,0.6c0.1,0.2,0.3,0.4,0.6,0.6c0.1,0.2,0.3,0.4,0.6,0.6
		c0.1,0.2,0.3,0.4,0.6,0.6c0.1,0.2,0.3,0.4,0.6,0.6c0.1,0.2,0.3,0.4,0.6,0.6c0.1,0.2,0.3,0.4,0.6,0.6c0.1,0.2,0.3,0.4,0.6,0.6
		c0.1,0.2,0.3,0.4,0.6,0.6c0.1,0.2,0.3,0.4,0.6,0.6c0.1,0.2,0.3,0.4,0.6,0.6c0.1,0.2,0.3,0.4,0.6,0.6c0.1,0.2,0.3,0.4,0.6,0.6
		c0.1,0.2,0.3,0.4,0.6,0.6c0.1,0.2,0.3,0.4,0.6,0.6c0.1,0.2,0.3,0.4,0.6,0.6c0.1,0.2,0.3,0.4,0.6,0.6c0.1,0.2,0.2,0.3,0.4,0.4
		c25.3-2.4,45.8-21.2,50.7-45.7C133.8,79.4,133.6,79.3,133.4,79.1z"/>
</g>
<g id="icons">
	<g id="_x31_0_1_">
		<path class="st0" d="M104.7,83.8c0.1-0.2,0.1-0.4,0.1-0.7V51.2c0-1-0.8-1.8-1.8-1.8H52.7c-1,0-1.8,0.8-1.8,1.8v31.9
			c0,0.2,0.1,0.5,0.1,0.7H104.7z"/>
		<rect x="53.8" y="52.3" class="st3" width="48.1" height="28.8"/>
		<path class="st0" d="M104.7,85.1H51h-7c0,0,0,2.3,2.3,2.3c2.3,0,60.8,0,63.1,0c2.3,0,2.3-2.3,2.3-2.3H104.7z"/>
		<path class="st6" d="M69.6,69.4c-0.4,0-0.8,0.1-1.2,0.3l-5.7-6.8c0.3-0.4,0.5-1,0.5-1.6c0-1.6-1.3-2.9-2.9-2.9
			c-1.6,0-2.9,1.3-2.9,2.9c0,1.6,1.3,2.9,2.9,2.9c0.4,0,0.8-0.1,1.2-0.3l5.7,6.8c-0.3,0.4-0.4,1-0.4,1.5c0,1.6,1.3,2.9,2.9,2.9
			c1.6,0,2.9-1.3,2.9-2.9c0-0.7-0.3-1.3-0.7-1.8l3.3-4.8c0.3,0.1,0.6,0.2,0.9,0.2c0.5,0,1-0.2,1.5-0.4l5.7,5.6
			c-0.2,0.4-0.3,0.8-0.3,1.3c0,1.6,1.3,2.9,2.9,2.9c1.6,0,2.9-1.3,2.9-2.9c0-0.7-0.3-1.3-0.7-1.8l5.3-8c0.3,0.1,0.5,0.1,0.8,0.1
			c1.6,0,2.9-1.3,2.9-2.9c0-1.6-1.3-2.9-2.9-2.9c-1.6,0-2.9,1.3-2.9,2.9c0,0.7,0.3,1.3,0.7,1.8l-5.3,8c-0.3-0.1-0.6-0.2-0.9-0.2
			c-0.5,0-1,0.2-1.4,0.4l-5.7-5.6c0.2-0.4,0.3-0.8,0.3-1.3c0-1.6-1.3-2.9-2.9-2.9c-1.6,0-2.9,1.3-2.9,2.9c0,0.7,0.2,1.3,0.6,1.8
			l-3.3,4.8C70.3,69.5,70,69.4,69.6,69.4z"/>
	</g>
</g>
<g id="text">
</g>
<g id="header_1_">
</g>
</svg>
