<?xml version="1.0" encoding="utf-8"?>
<!-- Generator: Adobe Illustrator 21.0.0, SVG Export Plug-In . SVG Version: 6.00 Build 0)  -->
<svg version="1.1" xmlns="http://www.w3.org/2000/svg" xmlns:xlink="http://www.w3.org/1999/xlink" x="0px" y="0px"
	 viewBox="0 0 152 136.8" style="enable-background:new 0 0 152 136.8;" xml:space="preserve">
<style type="text/css">
	.st0{fill:#2C5871;}
	.st1{fill:#99B1BD;}
	.st2{fill:#FFC02B;}
	.st3{fill:#A6DAE9;}
	.st4{fill:#D1D3D4;}
	.st5{fill:#E6E7E8;}
	.st6{fill:#FFFFFF;}
	.st7{fill:url(#icon_2_);}
	.st8{fill:url(#SVGID_1_);}
	.st9{fill:url(#SVGID_2_);}
	.st10{fill:url(#SVGID_3_);}
	.st11{fill:url(#SVGID_4_);}
	.st12{fill:url(#SVGID_5_);}
</style>
<g id="background">
</g>
<g id="circles">
	<circle class="st1" cx="79.4" cy="71.3" r="57.1"/>
</g>
<g id="shadows">
	<path class="st5" d="M134,87.1c-0.1-0.2-0.2-0.3-0.4-0.3l-0.2-0.2c-0.1-0.2-0.2-0.3-0.4-0.3l-0.2-0.2c-0.1-0.2-0.2-0.3-0.4-0.3
		l-0.2-0.2c-0.1-0.2-0.2-0.3-0.4-0.3l-0.2-0.2c-0.1-0.2-0.2-0.3-0.4-0.3l-0.2-0.2c-0.1-0.2-0.2-0.3-0.4-0.3l-0.2-0.2
		c-0.1-0.2-0.2-0.3-0.4-0.3l-0.2-0.2c-0.1-0.2-0.2-0.3-0.4-0.3l-0.2-0.2c-0.1-0.2-0.2-0.3-0.4-0.3l-0.2-0.2
		c-0.1-0.2-0.2-0.3-0.4-0.3l-0.2-0.2c-0.1-0.2-0.2-0.3-0.4-0.3l-0.2-0.2c-0.1-0.2-0.2-0.3-0.4-0.3l-0.2-0.2
		c-0.1-0.2-0.2-0.3-0.4-0.3l-0.2-0.2c-0.1-0.2-0.2-0.3-0.4-0.3l-0.2-0.2c-0.1-0.2-0.2-0.3-0.4-0.3l-0.2-0.2
		c-0.1-0.2-0.2-0.3-0.4-0.3l-0.2-0.2c-0.1-0.2-0.2-0.3-0.4-0.3l-0.2-0.2c-0.1-0.2-0.2-0.3-0.4-0.3l-0.2-0.2
		c-0.1-0.2-0.2-0.3-0.4-0.3l-0.2-0.2c-0.1-0.2-0.2-0.3-0.4-0.3l-0.2-0.2c-0.1-0.2-0.2-0.3-0.4-0.3l-0.2-0.2
		c-0.1-0.2-0.2-0.3-0.4-0.3l-0.2-0.2c-0.1-0.2-0.2-0.3-0.4-0.3l-0.2-0.2c-0.1-0.2-0.2-0.3-0.4-0.3l-0.2-0.2
		c-0.1-0.2-0.2-0.3-0.4-0.3l-0.2-0.2c-0.1-0.2-0.2-0.3-0.4-0.3l-0.2-0.2c-0.1-0.2-0.2-0.3-0.4-0.3l-0.2-0.2
		c-0.1-0.2-0.2-0.3-0.4-0.3l-0.2-0.2c-0.1-0.2-0.2-0.3-0.4-0.3l-0.2-0.2c-0.1-0.2-0.2-0.3-0.4-0.3l-0.2-0.2
		c-0.1-0.2-0.2-0.3-0.4-0.3l-0.2-0.2c-0.1-0.2-0.2-0.3-0.4-0.3l-0.2-0.2c-0.1-0.2-0.2-0.3-0.4-0.3l-0.2-0.2
		c-0.1-0.2-0.2-0.3-0.4-0.3l-0.2-0.2c-0.1-0.2-0.2-0.3-0.4-0.3l-0.2-0.2c-0.1-0.2-0.2-0.3-0.4-0.3l-0.2-0.2
		c-0.1-0.2-0.2-0.3-0.4-0.3l-0.2-0.2c-0.1-0.2-0.2-0.3-0.4-0.3l-0.2-0.2c-0.1-0.2-0.2-0.3-0.4-0.3l-0.2-0.2
		c-0.1-0.2-0.2-0.3-0.4-0.3l-0.2-0.2c-0.1-0.2-0.2-0.3-0.4-0.3l-0.2-0.2c-0.1-0.2-0.2-0.3-0.4-0.3l-0.2-0.2
		c-0.1-0.2-0.2-0.3-0.4-0.3l-0.2-0.2c-0.1-0.2-0.2-0.3-0.4-0.3l-0.2-0.2c-0.1-0.2-0.2-0.3-0.4-0.3l-0.2-0.2
		c-0.1-0.2-0.2-0.3-0.4-0.3l-0.2-0.2c-0.1-0.2-0.2-0.3-0.4-0.3l-0.2-0.2c-0.1-0.2-0.2-0.3-0.4-0.3l-0.2-0.2
		c-0.1-0.2-0.2-0.3-0.4-0.3l-0.2-0.2c-0.1-0.2-0.2-0.3-0.4-0.3l-0.2-0.2c-0.1-0.2-0.2-0.3-0.4-0.3l-0.2-0.2
		c-0.1-0.2-0.2-0.3-0.4-0.3l-0.2-0.2c-0.1-0.2-0.2-0.3-0.4-0.3l-0.2-0.2c-0.1-0.2-0.2-0.3-0.4-0.3l-0.2-0.2
		c-0.1-0.2-0.2-0.3-0.4-0.3l-0.2-0.2c-0.1-0.2-0.2-0.3-0.4-0.3l-0.2-0.2c-0.1-0.2-0.2-0.3-0.4-0.3l-0.2-0.2
		c-0.1-0.2-0.2-0.3-0.4-0.3l-0.2-0.2c-0.1-0.2-0.2-0.3-0.4-0.3l-0.2-0.2c-0.1-0.2-0.2-0.3-0.4-0.3l-0.2-0.2
		c-0.1-0.2-0.2-0.3-0.4-0.3l-0.2-0.2c-0.2-0.4-0.7-0.5-1.1-0.4c-0.1-0.2-0.2-0.3-0.3-0.4l-0.2-0.1c-0.1-0.2-0.2-0.3-0.4-0.4
		l-0.2-0.1c-0.1-0.2-0.2-0.3-0.4-0.4l-0.2-0.1c-0.1-0.2-0.2-0.3-0.4-0.4l-0.2-0.1c-0.1-0.2-0.2-0.3-0.4-0.4l-0.2-0.1
		c-0.1-0.2-0.2-0.3-0.4-0.4l-0.2-0.1c-0.1-0.2-0.2-0.3-0.4-0.4L95.1,49c-0.1-0.2-0.2-0.3-0.4-0.4l-2.9-1.9c-0.4-0.3-1-0.2-1.4,0.2
		l-1,1.1c-0.1-0.1-0.2-0.2-0.3-0.2c-0.1-0.3-0.3-0.5-0.6-0.6c-0.1-0.3-0.3-0.5-0.6-0.6c-0.1-0.3-0.3-0.5-0.6-0.6
		c-0.1-0.3-0.3-0.5-0.6-0.6c-0.1-0.3-0.3-0.5-0.6-0.6c-0.1-0.3-0.4-0.6-0.8-0.6l-3.2-0.5l-0.2,0c-0.2-0.1-0.5,0-0.7,0.1
		c-0.2,0.1-0.4,0.4-0.5,0.7L79.9,48l-0.2,0.6c-0.1-0.2-0.3-0.4-0.5-0.5c-0.1-0.3-0.3-0.4-0.6-0.6c-0.1-0.3-0.3-0.4-0.6-0.6
		c-0.1-0.3-0.3-0.4-0.6-0.6c-0.1-0.3-0.3-0.4-0.6-0.6c-0.1-0.3-0.3-0.4-0.6-0.6c-0.1-0.3-0.3-0.4-0.6-0.6c-0.2-0.5-0.8-0.8-1.3-0.6
		l-3.3,1c-0.5,0.1-0.8,0.7-0.7,1.2l0.9,5.5c-0.4,0.2-0.7,0.3-1,0.5l-0.3-0.3c0,0,0,0,0,0l-0.5-0.5c0,0,0,0,0,0L69,51c0,0,0,0,0,0
		l-0.5-0.5c0,0,0,0,0,0l-0.5-0.5c0,0,0,0,0,0l-0.5-0.5c0,0,0,0,0,0l-0.5-0.5c0,0,0,0,0,0l-0.5-0.5c-0.4-0.4-1-0.5-1.4-0.1L62,50.2
		c-0.4,0.3-0.5,0.9-0.3,1.4l2.9,4.9c-0.3,0.3-0.6,0.7-0.9,1c0,0,0,0,0,0l-5.3-2.4c-0.5-0.2-1.1-0.1-1.4,0.4l-1.8,3
		c-0.3,0.4-0.2,1,0.3,1.4l0.3,0.2c0.1,0.1,0.2,0.2,0.3,0.3l0.3,0.2c0.1,0.1,0.2,0.2,0.3,0.3l0.3,0.2c0.1,0.1,0.2,0.2,0.3,0.3
		l0.3,0.2c0.1,0.1,0.2,0.2,0.3,0.3l0.3,0.2c0.1,0.1,0.2,0.2,0.3,0.3l0.3,0.2c0.1,0.1,0.2,0.2,0.3,0.3l0.3,0.2
		c0.1,0.1,0.2,0.2,0.3,0.3l0.3,0.2c0,0.1,0.1,0.1,0.2,0.2c-0.1,0.2-0.2,0.4-0.2,0.7c0,0,0,0-0.1,0l-5.8-0.2c-0.6,0-1.1,0.4-1.1,0.9
		L52.1,69c-0.1,0.4,0.2,0.9,0.6,1.1c0.1,0.2,0.3,0.4,0.6,0.6c0.1,0.2,0.3,0.4,0.6,0.6c0.1,0.2,0.3,0.4,0.6,0.6
		c0.1,0.2,0.3,0.4,0.6,0.6c0.1,0.2,0.3,0.4,0.6,0.6c0.1,0.2,0.3,0.4,0.6,0.6c0.1,0.2,0.2,0.3,0.3,0.4l-3.3,1.3
		c-0.5,0.2-0.8,0.8-0.7,1.3l0.9,3.4c0.1,0.3,0.3,0.5,0.6,0.7c0.1,0.3,0.3,0.4,0.6,0.6c0.1,0.3,0.3,0.4,0.6,0.6
		c0.1,0.3,0.3,0.4,0.6,0.6c0.1,0.3,0.3,0.4,0.6,0.6c0.1,0.3,0.3,0.4,0.6,0.6c0.1,0.3,0.3,0.4,0.6,0.6c0,0.1,0.1,0.2,0.2,0.3L56.8,85
		c-0.4,0.4-0.5,1-0.2,1.4l2.1,2.8c0.1,0.1,0.2,0.2,0.4,0.3l0.2,0.2c0.1,0.1,0.2,0.2,0.4,0.3l0.2,0.2c0.1,0.1,0.2,0.2,0.4,0.3
		l0.2,0.2c0.1,0.1,0.2,0.2,0.4,0.3l0.2,0.2c0.1,0.1,0.2,0.2,0.4,0.3l0.2,0.2c0.1,0.1,0.2,0.2,0.4,0.3l0.2,0.2
		c0.1,0.1,0.2,0.2,0.4,0.3l0.2,0.2c0.1,0.1,0.2,0.2,0.4,0.3l0.2,0.2c0.1,0.1,0.2,0.2,0.4,0.3l0.2,0.2c0.1,0.1,0.2,0.2,0.4,0.3
		l0.2,0.2c0.1,0.1,0.2,0.2,0.4,0.3l0.2,0.2c0.1,0.1,0.2,0.2,0.4,0.3l0.2,0.2c0.1,0.1,0.2,0.2,0.4,0.3l0.2,0.2
		c0.1,0.1,0.2,0.2,0.4,0.3l0.2,0.2c0.1,0.1,0.2,0.2,0.4,0.3l0.2,0.2c0.1,0.1,0.2,0.2,0.4,0.3l0.2,0.2c0.1,0.1,0.2,0.2,0.4,0.3
		l0.2,0.2c0.1,0.1,0.2,0.2,0.4,0.3l0.2,0.2c0.1,0.1,0.2,0.2,0.4,0.3l0.2,0.2c0.1,0.1,0.2,0.2,0.4,0.3l0.2,0.2
		c0.1,0.1,0.2,0.2,0.4,0.3l0.2,0.2c0.1,0.1,0.2,0.2,0.4,0.3l0.2,0.2c0.1,0.1,0.2,0.2,0.4,0.3l0.2,0.2c0.1,0.1,0.2,0.2,0.4,0.3
		l0.2,0.2c0.1,0.1,0.2,0.2,0.4,0.3l0.2,0.2c0.1,0.1,0.2,0.2,0.4,0.3l0.2,0.2c0.1,0.1,0.2,0.2,0.4,0.3l0.2,0.2
		c0.1,0.1,0.2,0.2,0.4,0.3l0.2,0.2c0.1,0.1,0.2,0.2,0.4,0.3l0.2,0.2c0.1,0.1,0.2,0.2,0.4,0.3l0.2,0.2c0.1,0.1,0.2,0.2,0.4,0.3
		l0.2,0.2c0.1,0.1,0.2,0.2,0.4,0.3l0.2,0.2c0.1,0.1,0.2,0.2,0.4,0.3l0.2,0.2c0.1,0.1,0.2,0.2,0.4,0.3l0.2,0.2
		c0.1,0.1,0.2,0.2,0.4,0.3l0.2,0.2c0.1,0.1,0.2,0.2,0.4,0.3l0.2,0.2c0.1,0.1,0.2,0.2,0.4,0.3l0.2,0.2c0.1,0.1,0.2,0.2,0.4,0.3
		l0.2,0.2c0.1,0.1,0.2,0.2,0.4,0.3l0.2,0.2c0.1,0.1,0.2,0.2,0.4,0.3l0.2,0.2c0.1,0.1,0.2,0.2,0.4,0.3l0.2,0.2
		c0.1,0.1,0.2,0.2,0.4,0.3l0.2,0.2c0.1,0.1,0.2,0.2,0.4,0.3l0.2,0.2c0.1,0.1,0.2,0.2,0.4,0.3l0.2,0.2c0.1,0.1,0.2,0.2,0.4,0.3
		l0.2,0.2c0.1,0.1,0.2,0.2,0.4,0.3l0.2,0.2c0.1,0.1,0.2,0.2,0.4,0.3l0.2,0.2c0.1,0.1,0.2,0.2,0.4,0.3l0.2,0.2
		c0.1,0.1,0.2,0.2,0.4,0.3l0.2,0.2c0.1,0.1,0.2,0.2,0.4,0.3l0.2,0.2c0.1,0.1,0.2,0.2,0.4,0.3l0.2,0.2c0.1,0.1,0.2,0.2,0.4,0.3
		l0.2,0.2c0.1,0.1,0.2,0.2,0.4,0.3l0.2,0.2c0.1,0.1,0.2,0.2,0.4,0.3l0.2,0.2c0.1,0.1,0.2,0.2,0.4,0.3l0.2,0.2
		c0.1,0.1,0.2,0.2,0.4,0.3l0.2,0.2c0.1,0.1,0.2,0.2,0.4,0.3l0.2,0.2c0.1,0.1,0.2,0.2,0.4,0.3l0.2,0.2c0.1,0.1,0.2,0.2,0.4,0.3
		l0.2,0.2c0.1,0.1,0.2,0.2,0.4,0.3l0.2,0.2c0.1,0.1,0.2,0.2,0.4,0.3l0.2,0.2c0.1,0.1,0.2,0.2,0.4,0.3l0.2,0.2
		c0.1,0.1,0.2,0.2,0.4,0.3l0.2,0.2c0.1,0.1,0.2,0.2,0.4,0.3l0.2,0.2c0.1,0.1,0.2,0.2,0.4,0.3l0.2,0.2c0.1,0.1,0.2,0.2,0.4,0.3
		l0.2,0.2c0.1,0.1,0.2,0.2,0.3,0.3c18.6-5.5,33.2-20.1,38.6-38.7c0,0-0.1-0.1-0.1-0.1L134,87.1z"/>
</g>
<g id="icons">
	<g id="_x32_6_1_">
		<circle class="st0" cx="79.4" cy="71.3" r="17"/>
		<linearGradient id="icon_2_" gradientUnits="userSpaceOnUse" x1="62.3949" y1="71.3411" x2="96.4525" y2="71.3411">
			<stop  offset="0.5" style="stop-color:#FFFFFF"/>
			<stop  offset="0.5" style="stop-color:#F1F2F2"/>
		</linearGradient>
		<path id="icon_1_" class="st7" d="M79.4,54.3c-9.4,0-17,7.6-17,17c0,9.4,7.6,17,17,17c9.4,0,17-7.6,17-17
			C96.5,61.9,88.8,54.3,79.4,54.3z M77.7,59.7h0.8v-1h-0.6h-0.2v-2.5h1v-1.3l0.1-0.1c0.2,0,0.4,0,0.6,0c0.8,0,1.6,0.1,2.4,0.2v0.9
			H83v1.3V59h-0.9l-0.8,0.8l-1.9,1.9l-1,1l-0.8-0.8V59.7z M74.5,55.5l0.3,0.3l-0.5,0.5h-0.9v0.9h1.3h0.7v4.3h-1.5v-3.1h-1V57h-0.7
			v0.9l-0.6,0.6h-1.5l-0.4-0.4C71,57,72.7,56.1,74.5,55.5z M79.9,79.6h-1.4l-0.7,1v2.3l-2.1,1.6v2.8l-2.4-2.2v-5.7L70.7,77v-2.9
			L69,72.8h-1.6l-1.1-1.1v-1.5l-0.7-0.5l-0.2,0.6l0.4,0.2v1.3l-0.9-1.1l-0.5-1.8l-0.4-0.1v-3.2c0.8-2.2,2.1-4.2,3.8-5.9l5.2,0
			l-0.2,1.1l-1.6,0.1l0.2,0.5l0.4,0.4l-0.4,0.7L70,62.4l0.7,1l1.2,0.9l0.4,1l0.5-0.2v-2.5h1.4v0.3h1.5v1.8h-0.6v0.7h-0.6v0.5h0.9
			l-0.6,0.6l-0.2-0.2L74,66.7v0.5l-0.5,0.5l-0.6,0.6L72.2,69l-0.5,0.5V71H71v-0.8h-2.2v0.9l2.2,2.1h4.3v0.4h1.6l1.7,2.2h1.3V79.6z
			 M93.1,69.9v1.3h-2.2l-1.1-1.1v-0.7h-0.6v1l1.5,1.5h1.7v1.2l-1.5,1.5v2.2V79h-1.2v2.2l-0.9,0.9h-2.1v-2L85.4,79v-3.6L84,74h-3
			l-1.2-1.2v-3l1-1h1.7l1.1-1.1h0.6h0.7v0.6h4v-0.7h-1l0.6-0.6l0.6-0.6h1l-0.6-0.6h-0.9l-1,1v0.8l-1-1h-0.7l1,1H86l-0.6-0.6v-0.4
			l-0.9-0.9l-0.7,0.7l-0.6,0.6v1.1H82v-0.5v-1.7h0.4v-0.4l0.3-0.3l-0.5-0.5l-0.7,0.7L81,64.6l0.3-0.3v-0.5v-1h1.1v0.6l0.9,0.9h0.7
			v-0.7H86v-0.7h0.8v-1h-0.9v-1h-0.5v2l-0.4,0.4l-0.7-0.3l-1.2-0.3l0.1-1.2l1.2-0.9l0.7-1.2l1.3-0.3l-0.2,0.6l0.9,0.2l0,0.6l1-0.1
			l0.5-0.3l0.1-0.5h2.1c3.1,3,5.1,7.3,5.1,12c0,0.3,0,0.5,0,0.8l-3.6-3.6L92,68.9L93.1,69.9z"/>
		<linearGradient id="SVGID_1_" gradientUnits="userSpaceOnUse" x1="52.0557" y1="71.3409" x2="106.7898" y2="71.3409">
			<stop  offset="0.4785" style="stop-color:#FFD100"/>
			<stop  offset="0.4785" style="stop-color:#FFB914"/>
		</linearGradient>
		<path class="st8" d="M106,72.2l-5-1.3c0-0.6-0.1-1.2-0.1-1.8l4.8-1.9c0.5-0.2,0.8-0.8,0.7-1.3l-0.9-3.4c-0.1-0.5-0.6-0.9-1.2-0.8
			L99,62.4c-0.2-0.5-0.5-1-0.8-1.5l3.7-3.5c0.4-0.4,0.5-1,0.2-1.4l-2-2.8c-0.3-0.4-0.9-0.6-1.4-0.3l-4.8,2.7
			c-0.3-0.3-0.7-0.6-1.1-0.9l2.3-4.7c0.3-0.5,0.1-1.1-0.4-1.4l-2.9-1.9c-0.4-0.3-1-0.2-1.4,0.2l-2.2,2.6l-1.5,1.8c0,0,0,0,0,0
			c-0.1,0-0.2-0.1-0.3-0.1l0.1-5.8c0-0.6-0.4-1.1-0.9-1.1l-3.2-0.5l-0.2,0c-0.2-0.1-0.5,0-0.7,0.1c-0.2,0.1-0.4,0.4-0.5,0.7L79.9,48
			l-0.6,2.2c-0.3,0-0.7,0-1,0.1c0-0.1,0-0.1-0.1-0.2l-1.1-2.5l0-0.1l-1.2-2.7c-0.2-0.5-0.8-0.8-1.3-0.6l-3.3,1
			c-0.5,0.1-0.8,0.7-0.7,1.2l0.9,5.5c-0.4,0.2-0.7,0.3-1.1,0.5c0,0,0-0.1-0.1-0.1l-4.1-4.1c-0.4-0.4-1-0.5-1.4-0.1L62,50.2
			c-0.4,0.3-0.5,0.9-0.3,1.4l2.9,4.9c-0.3,0.3-0.6,0.7-0.9,1c0,0,0,0,0,0l-5.3-2.4c-0.5-0.2-1.1-0.1-1.4,0.4l-1.8,3
			c-0.3,0.4-0.2,1,0.3,1.4l4.5,3.6c0,0,0,0,0,0c-0.2,0.4-0.3,0.9-0.5,1.3c0,0,0,0-0.1,0l-5.8-0.2c-0.6,0-1.1,0.4-1.1,0.9L52.1,69
			c-0.1,0.5,0.2,1,0.8,1.2l5.6,1.6c0,0,0,0,0.1,0c0,0.4,0,0.8,0,1.2c0,0-0.1,0-0.1,0l-5.4,2.2c-0.5,0.2-0.8,0.8-0.7,1.3l0.9,3.4
			c0.1,0.5,0.6,0.8,1.2,0.8l5.7-0.8c0.2,0.4,0.4,0.8,0.6,1.2L56.8,85c-0.4,0.4-0.5,1-0.2,1.4l2.1,2.8c0.3,0.4,0.9,0.6,1.4,0.3
			l4.9-2.7c0.3,0.3,0.6,0.6,1,0.9l-2.2,5c-0.2,0.5-0.1,1.1,0.4,1.4l3,1.8c0.4,0.3,1,0.2,1.4-0.3l3.4-4.3c0.5,0.2,0.9,0.4,1.4,0.5
			l-0.1,5.5c0,0.6,0.4,1.1,0.9,1.1l2.9,0.4l0.5,0.1c0.5,0.1,1-0.3,1.2-0.8l1-3.5l0.5-1.8c0.3,0,0.5,0,0.8,0l1.2,3.1l0.8,1.9
			c0.2,0.5,0.8,0.8,1.3,0.7l3.4-0.9c0.2,0,0.4-0.2,0.5-0.3c0.2-0.2,0.3-0.6,0.3-0.9L88.2,94l-0.4-2.9c0.1-0.1,0.3-0.1,0.4-0.2
			c0.4-0.1,0.7-0.3,1.1-0.5l3.6,3.7c0.4,0.4,1.1,0.5,1.4,0.1l2.8-2.1c0.4-0.3,0.5-0.9,0.3-1.4l-2.5-4.3c0.4-0.4,0.8-0.8,1.2-1.3
			l4.7,2.1c0.5,0.2,1.1,0.1,1.4-0.4l1.8-3c0.3-0.4,0.2-1-0.3-1.4l-4.1-3.2c0.2-0.5,0.4-1,0.6-1.6l5.1,0.1c0.6,0,1.1-0.4,1.1-0.9
			l0.5-3.5C106.9,72.9,106.5,72.4,106,72.2z M79.4,89.6c-10.1,0-18.2-8.2-18.2-18.2c0-10.1,8.2-18.2,18.2-18.2
			c10.1,0,18.2,8.2,18.2,18.2C97.7,81.4,89.5,89.6,79.4,89.6z"/>
	</g>
</g>
<g id="text">
</g>
<g id="header_1_">
</g>
</svg>
